<svg width="120" height="48" viewBox="0 0 120 48" fill="none" xmlns="http://www.w3.org/2000/svg">
<g id="bloomberg-1" clip-path="url(#clip0_2_565)">
<path id="Vector" d="M0 12.9326H8.79751C10.4732 12.9326 11.73 13.3511 12.661 14.0486C13.685 14.8857 14.2436 16.0947 14.2436 17.5827C14.2436 19.3033 13.5454 20.3728 12.149 21.0238V21.1168C14.0109 21.7213 15.0815 23.3954 15.0815 25.3949C15.0815 27.3015 14.3367 28.7895 13.1265 29.7196C12.1024 30.4636 10.7991 30.7891 9.03025 30.7891H0V12.9326ZM7.91311 19.9078C8.84407 19.9078 9.54228 19.3963 9.54228 18.3268C9.54228 17.3037 8.84406 16.7922 7.86656 16.7922H4.84096V19.8613H7.91311V19.9078ZM8.33204 26.8365C9.40264 26.8365 10.1939 26.1855 10.1939 25.0229C10.1939 23.7674 9.35609 23.2094 8.33204 23.2094H4.88751V26.883H8.33204V26.8365ZM15.8728 12.9326H20.481V30.8356H15.8728V12.9326ZM21.4119 24.4649C21.4119 20.4193 24.0186 17.7222 28.0683 17.7222C32.1179 17.7222 34.678 20.4658 34.678 24.4649C34.678 28.5105 32.1179 31.2076 28.0683 31.2076C24.0186 31.2076 21.4119 28.5105 21.4119 24.4649ZM30.0698 24.4649C30.0698 22.2329 29.3716 20.8378 27.9752 20.8378C26.5787 20.8378 25.9271 22.2329 25.9271 24.4649C25.9271 26.697 26.5787 28.1385 27.9752 28.1385C29.3716 28.092 30.0698 26.697 30.0698 24.4649ZM35.1901 24.4649C35.1901 20.4193 37.7967 17.7222 41.8464 17.7222C45.896 17.7222 48.4096 20.4193 48.4096 24.4649C48.4096 28.5105 45.8495 31.2076 41.7998 31.2076C37.7967 31.2076 35.1901 28.5105 35.1901 24.4649ZM43.8479 24.4649C43.8479 22.2329 43.1497 20.8378 41.7533 20.8378C40.3569 20.8378 39.7052 22.2329 39.7052 24.4649C39.7052 26.697 40.3569 28.1385 41.7533 28.1385C43.1497 28.092 43.8479 26.697 43.8479 24.4649ZM49.3406 18.0478H53.623V19.9543H53.7161C54.5539 18.4663 55.7176 17.6757 57.5795 17.6757C59.2087 17.6757 60.4189 18.4663 61.0241 19.8613H61.1171C62.1412 18.1873 63.4911 17.6757 65.0737 17.6757C68.0528 17.6757 69.3095 19.8613 69.3095 22.7909V30.7891H64.841V23.5814C64.841 22.2794 64.422 21.4423 63.3049 21.4423C62.1877 21.4423 61.6292 22.4654 61.6292 23.8604V30.7891H57.1606V23.5814C57.1606 22.2794 56.7417 21.4423 55.6245 21.4423C54.5074 21.4423 53.9488 22.4654 53.9488 23.8604V30.7891H49.3406V18.0478ZM74.9418 29.115H74.8953V30.7891H70.6129V12.9326H75.0815V19.3498H75.1746C76.0124 18.2338 77.1761 17.6292 78.8053 17.6292C82.0171 17.6292 83.879 20.5123 83.879 24.3719C83.879 28.6965 81.8774 31.2076 78.526 31.2076C77.1296 31.2076 75.6866 30.5566 74.9418 29.115ZM79.2708 24.3254C79.2708 22.2794 78.526 20.9308 77.1761 20.9308C75.7797 20.9308 74.9418 22.2794 74.9418 24.3254C74.9418 26.3715 75.8262 27.72 77.1761 27.72C78.526 27.72 79.2708 26.418 79.2708 24.3254ZM84.391 24.4184C84.391 20.4193 87.0442 17.6757 90.8611 17.6757C92.7696 17.6757 94.2126 18.2803 95.3297 19.3498C96.8192 20.7913 97.4709 23.0234 97.4244 25.6274H88.8596C89.0458 27.2085 89.7905 28.0455 91.1404 28.0455C91.9317 28.0455 92.63 27.6735 92.9092 26.8365H97.2382C96.4934 29.7661 94.2126 31.2076 91.0008 31.2076C87.0442 31.1611 84.391 28.464 84.391 24.4184ZM88.8596 23.0699H92.9558C92.8627 21.5353 92.0248 20.7448 90.9542 20.7448C89.6974 20.6983 88.9992 21.5818 88.8596 23.0699ZM102.498 20.2333H102.591C103.522 18.4663 104.732 17.7687 106.268 17.7687C106.641 17.7687 106.874 17.8152 107.013 17.9082V21.8143H106.92C104.267 21.3493 102.731 22.6049 102.731 25.4879V30.8356H98.2157V18.0478H102.498V20.2333ZM107.479 30.8356H111.808C111.994 31.3936 112.552 31.9051 113.623 31.9051C115.066 31.9051 115.578 31.0216 115.578 29.6731V28.743H115.485C114.787 29.58 113.809 30.1846 112.413 30.1846C109.666 30.1846 107.246 28.1385 107.246 24.1394C107.246 20.4658 109.201 17.6292 112.18 17.6292C113.902 17.6292 114.926 18.3268 115.625 19.3963H115.718V18.0012H120V29.0685C120 31.1146 119.302 32.6956 118.231 33.6257C117.114 34.6022 115.531 35.0207 113.716 35.0207C110.272 35.0672 107.898 33.6722 107.479 30.8356ZM115.764 23.9534C115.764 22.3724 115.019 21.0703 113.716 21.0703C112.459 21.0703 111.668 22.1864 111.668 23.9534C111.668 25.6739 112.459 26.883 113.716 26.883C114.973 26.883 115.764 25.6274 115.764 23.9534Z" fill="white"/>
</g>
<defs>
<clipPath id="clip0_2_565">
<rect width="120" height="48" fill="white"/>
</clipPath>
</defs>
</svg>
