<svg width="80" height="60" viewBox="0 0 80 60" fill="none" xmlns="http://www.w3.org/2000/svg">
<g id="cnbc-1" clip-path="url(#clip0_2_556)">
<path id="Vector" d="M14.0147 51.0657C13.7199 49.6485 12.5482 49.2711 11.2348 49.1498C6.9961 48.7608 6.24535 51.9033 6.24535 53.23C6.24535 55.4983 6.91462 57.3757 11.0738 57.3757C11.842 57.3757 13.9604 56.592 13.9604 55.3192H19.9451C19.7026 59.0952 13.3028 60.0002 10.5112 60.0002C4.72833 60.0002 -0.224296 58.9316 0.0162548 53.282C0.186968 49.248 4.02802 46.4174 11.6733 46.5927C15.9333 46.6928 20.0285 48.0079 20.044 51.0657H14.0147ZM73.9564 51.0657C73.6635 49.6485 72.4898 49.2711 71.1784 49.1498C66.9397 48.7608 66.189 51.9033 66.189 53.23C66.189 55.4983 66.8563 57.3757 71.0194 57.3757C71.7876 57.3757 73.904 56.592 73.904 55.3192H79.8887C79.6462 59.0952 73.2483 60.0002 70.4549 60.0002C64.6719 60.0002 59.7213 58.9316 59.9599 53.282C60.1306 49.248 63.9736 46.4174 71.6188 46.5927C75.8789 46.6928 79.9721 48.0079 79.9896 51.0657H73.9564ZM21.1149 46.8642H28.8842L35.513 56.0818H35.5653V46.8642H40.5451V59.6633H33.1016L26.147 50.4438H26.0946V59.6633H21.1149V46.8642ZM42.0835 46.8642H51.5193C56.0548 46.8642 58.7222 48.1196 58.7222 50.0182C58.7222 51.1389 57.6048 52.5233 55.1159 52.9316V52.9681C58.1131 53.1453 59.2188 55.0246 59.2188 56.1511C59.2188 58.4078 56.6193 59.6633 51.5464 59.6633H42.0835V46.8642ZM47.5444 51.8359H49.1099C51.5193 51.8359 52.7977 51.6491 52.7977 50.6575C52.7977 49.5927 51.7327 49.2403 49.5638 49.2403H47.5424L47.5444 51.8359ZM47.5444 56.9791H49.1099C52.014 56.9791 53.079 56.6767 53.079 55.6851C53.079 54.6203 51.7346 54.266 49.5658 54.266H47.5444V56.9791Z" fill="white"/>
<path id="Vector_2" d="M24.3041 16.8599L35.1425 41.4606L12.7829 26.2642C7.17264 22.5787 8.30943 16.2591 11.4191 13.4748C15.815 9.78927 22.0305 11.0678 24.3041 16.8599Z" fill="white"/>
<path id="Vector_3" d="M39.1581 11.0683L35.2181 38.6016L24.0015 12.4239C21.5766 5.87893 27.0316 1.59074 30.6709 1.51564C34.8398 1.06314 40.0679 4.22296 39.1581 11.0683Z" fill="white"/>
<path id="Vector_4" d="M56.2119 12.3486L45.071 38.6034L41.5093 14.9057C41.2047 11.2953 43.4802 11.2202 44.3144 10.5424C44.1631 10.0148 43.0263 10.0148 43.0263 10.0148H40.904C40.677 3.84539 45.5268 1.13807 49.4688 1.43846C53.7114 1.59058 58.4855 6.47954 56.2119 12.3486Z" fill="white"/>
<path id="Vector_5" d="M67.5818 26.1142L45.2242 41.3877L55.758 17.0873C58.9414 9.41397 66.3694 10.9178 69.0212 13.8524C71.9001 16.7099 72.7343 22.5038 67.5818 26.1142Z" fill="white"/>
<path id="Vector_6" d="M69.9291 44.0948H44.0855L65.0793 29.5743C70.2337 26.1892 75.6907 29.2739 77.1301 33.7123C78.6471 38.6783 75.2348 44.0948 69.9291 44.0948Z" fill="white"/>
<path id="Vector_7" d="M3.00568 33.4121C4.97664 28.2959 10.4336 26.4898 15.2834 29.5745L36.2792 44.095H10.8119C5.50624 44.095 1.33928 39.2793 3.00568 33.4121Z" fill="white"/>
</g>
<defs>
<clipPath id="clip0_2_556">
<rect width="80" height="60" fill="white"/>
</clipPath>
</defs>
</svg>
