<svg width="100" height="46" viewBox="0 0 100 46" fill="none" xmlns="http://www.w3.org/2000/svg">
<g id="cnn-logo 1" clip-path="url(#clip0_2_577)">
<path id="Vector" d="M31.6757 0.0231762C31.6757 0.00244141 23.0731 0.0231762 23.0731 0.0231762C10.3394 0.0231762 0.0163879 10.3104 0.0163879 23C0.0163879 35.6896 10.3394 45.9769 23.0731 45.9769L39.248 45.9633C43.3115 45.9633 46.6057 42.7062 46.6057 38.6566L46.6142 24.6425L57.794 42.2149C59.306 44.4953 61.9014 45.9996 64.8495 45.9996C69.5165 45.9996 73.3001 42.2293 73.3001 37.5784L73.2976 24.6423L84.4774 42.2147C85.9894 44.4951 88.5848 45.9995 91.5329 45.9995C96.1998 45.9995 99.9835 42.2291 99.9835 37.5782L99.981 0.00244141H94.2285V37.5787C94.2285 39.0622 93.0217 40.2648 91.533 40.2648C90.6026 40.2648 89.7823 39.7952 89.298 39.0805L69.399 7.84535C69.2757 7.66661 69.0982 7.53188 68.8926 7.46085C68.6869 7.38981 68.4639 7.38622 68.256 7.45058C68.0481 7.51494 67.8664 7.64389 67.7374 7.81856C67.6083 7.99323 67.5387 8.20446 67.5388 8.42137L67.5451 37.5788C67.5451 39.0623 66.3383 40.2649 64.8497 40.2649C63.9193 40.2649 63.0991 39.7954 62.6146 39.0807L42.7156 7.84535C42.5923 7.66665 42.4148 7.53194 42.2092 7.46093C42.0035 7.38993 41.7805 7.38634 41.5726 7.45069C41.3648 7.51505 41.183 7.64397 41.054 7.81862C40.9249 7.99326 40.8553 8.20447 40.8553 8.42137L40.8508 38.6569C40.8508 39.5391 40.1334 40.2539 39.2481 40.2539L23.0733 40.2418C13.5179 40.2417 5.7715 32.5222 5.7715 23C5.7715 13.4779 13.5179 5.7582 23.0731 5.7582L31.6757 5.75187V0.0231762Z" fill="white"/>
<path id="Vector_2" d="M32.603 32.8771C32.8204 32.8771 33.0289 32.791 33.1826 32.6378C33.3363 32.4847 33.4226 32.2769 33.4226 32.0603L33.4248 8.42113C33.4247 3.7705 37.2081 0 41.8751 0C44.8337 0 47.4373 1.51526 48.947 3.80947L60.088 21.2258L60.108 8.42128C60.108 3.7705 63.8914 0 68.5585 0C71.517 0 74.1206 1.51526 75.6303 3.80947L86.7712 21.2258V0.00249994H92.5632L92.5529 37.5787C92.5528 37.792 92.4854 37.9999 92.3602 38.1729C92.235 38.3459 92.0584 38.4753 91.8554 38.5427C91.6523 38.6102 91.4331 38.6122 91.2288 38.5486C91.0245 38.4851 90.8454 38.359 90.717 38.1884L70.7935 6.9194C70.3092 6.20501 69.4889 5.73517 68.5585 5.73517C67.0698 5.73517 65.863 6.93779 65.863 8.42128L65.8695 37.5787C65.8694 37.792 65.802 37.9999 65.6768 38.1729C65.5516 38.3458 65.3749 38.4752 65.1719 38.5426C64.9688 38.6101 64.7496 38.6121 64.5453 38.5486C64.341 38.485 64.1619 38.359 64.0335 38.1884L44.1103 6.9194C43.6258 6.20501 42.8057 5.73517 41.8751 5.73517C40.3866 5.73517 39.1798 6.93779 39.1798 8.42128L39.1919 37.8097C39.1919 38.0264 39.1055 38.2341 38.9518 38.3873C38.7981 38.5404 38.5897 38.6265 38.3723 38.6265L23.0731 38.6234C14.4431 38.6234 7.44698 31.6002 7.44698 23.0002C7.44698 14.4001 14.4431 7.37675 23.0731 7.37675C23.0731 7.37675 31.6757 7.34337 31.6757 7.37675V13.1697L23.0731 13.1632C17.6216 13.1632 13.2021 17.5674 13.2021 23.0002C13.2021 28.4327 17.6216 32.8882 23.0731 32.8882L32.603 32.8771Z" fill="white"/>
</g>
<defs>
<clipPath id="clip0_2_577">
<rect width="100" height="46" fill="white"/>
</clipPath>
</defs>
</svg>
