<svg width="120" height="32" viewBox="0 0 120 32" fill="none" xmlns="http://www.w3.org/2000/svg">
<g id="Forbes_logo 1" clip-path="url(#clip0_2_554)">
<path id="Vector" d="M11.5527 3.38848H14.1814C15.7823 3.15586 17.4172 3.36038 18.9085 3.97982C20.7795 5.09008 22.1366 6.87749 22.6902 8.96075C23.0822 10.0525 23.0822 10.0525 24.0277 9.66581H24.7656V1.02311H0.0230617V2.54696H1.03767C1.47857 2.54394 1.91455 2.6384 2.31359 2.82338C2.71263 3.00837 3.06458 3.27918 3.34358 3.61592C4.28901 5.11702 4.45043 6.80007 4.45043 15.5565C4.45043 24.8588 4.24289 27.1332 3.34358 28.2931C3.12157 28.5913 2.83413 28.8362 2.50272 29.0095C2.17131 29.1828 1.8045 29.28 1.42967 29.2938C0.0230618 29.544 0.0230617 29.5213 0.0230617 30.1354C-0.054725 30.3407 -0.054725 30.5668 0.0230617 30.7722H15.6341C15.7374 30.5713 15.7913 30.3492 15.7913 30.124C15.7913 29.8987 15.7374 29.6767 15.6341 29.4758C15.256 29.372 14.8707 29.296 14.4812 29.2483C14.0598 29.1989 13.6433 29.1152 13.236 28.9982C12.6526 28.5781 12.1905 28.0152 11.8953 27.365C11.6 26.7148 11.4819 25.9999 11.5527 25.2909C11.3221 23.7898 11.2068 21.0378 11.2068 18.7634V16.9666H12.1291C13.2783 16.9319 14.4268 17.0544 15.5419 17.3305C16.0761 17.6561 16.5308 18.094 16.8736 18.613C17.2164 19.132 17.4388 19.7192 17.525 20.3327L17.7325 21.0378H19.1391V10.9622H17.8478L17.6403 11.9402C17.553 12.5676 17.3176 13.1661 16.9532 13.6875C16.5887 14.2089 16.1054 14.6388 15.5419 14.9424C14.9962 15.1026 14.4213 15.1414 13.8586 15.0561H11.2068V12.5998C11.2068 10.0525 11.3451 4.68489 11.4374 3.84336L11.5527 3.38848ZM119.47 21.4244C118.38 19.6941 116.68 18.4223 114.696 17.8536C113.176 17.3849 111.771 16.6105 110.569 15.5792C110.298 15.3212 110.096 15.0019 109.979 14.6491C109.863 14.2962 109.836 13.9206 109.9 13.555C109.902 12.8379 110.192 12.1508 110.707 11.6445C111.056 11.2839 111.498 11.0237 111.985 10.8915C112.473 10.7593 112.987 10.7601 113.474 10.894C114.482 11.1774 115.394 11.7244 116.112 12.4771C116.831 13.2299 117.33 14.1603 117.556 15.1698C117.925 16.1933 117.971 16.1933 118.64 15.9204L119.055 15.7612V10.0979L118.755 9.96148C116.485 9.17506 114.077 8.85012 111.676 9.00624C109.608 9.05791 107.634 9.86898 106.141 11.2806C105.464 11.9058 104.934 12.6695 104.587 13.5181C104.241 14.3667 104.087 15.2797 104.135 16.1933C104.148 17.5901 104.71 18.9273 105.703 19.9233C106.801 20.9877 108.147 21.7689 109.623 22.1977C113.198 23.5851 114.235 24.4721 114.235 26.0869C114.251 26.7679 114.031 27.4338 113.612 27.9752C113.193 28.5167 112.599 28.9014 111.929 29.0664C111.124 29.2409 110.29 29.2409 109.485 29.0664C108.431 28.6628 107.49 28.0168 106.74 27.1821C105.99 26.3474 105.452 25.3482 105.173 24.2674L104.873 23.5396H104.458C104.26 23.5542 104.065 23.6002 103.882 23.6761H103.651V30.1354H104.043C105.601 30.6465 107.208 30.9971 108.839 31.1816H111.145C112.145 31.254 113.151 31.1617 114.12 30.9087C115.351 30.6847 116.5 30.147 117.455 29.349C118.41 28.551 119.136 27.5205 119.562 26.3599C119.837 25.7116 119.978 25.0157 119.977 24.3129C120.068 23.3229 119.893 22.3267 119.47 21.4244ZM97.7479 9.66581C96.3661 9.0936 94.8773 8.81602 93.379 8.8513C91.8808 8.88658 90.4071 9.23391 89.0546 9.87051C87.7832 10.4839 86.6564 11.3534 85.7469 12.4229C84.8373 13.4923 84.1652 14.7381 83.774 16.0796C83.2752 17.5431 83.0639 19.0869 83.1514 20.6284C83.1349 21.4671 83.2044 22.3053 83.3589 23.1302C83.7313 25.1585 84.7241 27.0259 86.2039 28.4814C87.6838 29.9369 89.5797 30.9109 91.6372 31.2726C92.977 31.4391 94.3327 31.4391 95.6726 31.2726C97.0629 31.0309 98.3935 30.5291 99.5926 29.7942C100.585 29.2457 101.424 28.4646 102.037 27.5198C101.998 27.3716 101.928 27.2327 101.833 27.1115C101.738 26.9904 101.619 26.8894 101.483 26.8147C101.22 26.9087 100.972 27.0389 100.746 27.2014C99.5986 27.9469 98.2443 28.3207 96.8716 28.2704C95.9605 28.3311 95.0472 28.1912 94.1977 27.8608C93.3482 27.5303 92.5838 27.0176 91.96 26.3599C91.4775 25.9178 91.0792 25.394 90.784 24.8133C90.0675 23.3994 89.6814 21.845 89.6541 20.2645V19.3775H102.429V18.9226C102.457 18.4681 102.457 18.0124 102.429 17.558C102.424 15.952 101.989 14.3759 101.167 12.9897C100.344 11.6035 99.1649 10.4567 97.7479 9.66581ZM91.3144 17.5352H89.7002V16.1933C90.2306 12.759 91.545 10.712 93.1591 10.712C94.7732 10.712 95.465 12.7362 95.7648 16.4435V17.4897H94.3812L91.3144 17.5352ZM58.1553 8.91526C57.3585 8.88478 56.5664 9.04885 55.8493 9.39288C54.2909 10.1394 53.032 11.381 52.2752 12.9182L51.9754 13.4641V8.91526H51.8601C51.5834 8.91526 43.0515 10.5983 42.7748 10.712C42.4981 10.8258 42.5903 10.8485 42.5903 11.2579C42.5903 11.6673 42.5903 11.7355 42.7748 11.7583L43.6741 11.9402C43.926 11.9463 44.1731 12.0089 44.3969 12.1231C44.6206 12.2374 44.815 12.4004 44.9654 12.5998C45.5419 13.3503 45.6572 14.6695 45.6572 20.2872C45.7711 22.8163 45.6631 25.3503 45.3344 27.861C45.257 28.2395 45.0624 28.5851 44.7774 28.8499C44.4924 29.1147 44.131 29.2857 43.7433 29.3393L42.9593 29.4985H42.6595V30.1354C42.5758 30.3475 42.5758 30.5828 42.6595 30.7949H55.5496V30.1354C55.5943 29.9177 55.5943 29.6934 55.5496 29.4758C54.7735 29.446 54.0017 29.347 53.2437 29.1801C52.8309 28.9671 52.4931 28.6358 52.275 28.2299C52.0568 27.8239 51.9685 27.3622 52.0215 26.9057C51.8371 25.5866 51.7448 21.7201 51.7909 18.7634C51.8371 15.8067 51.7909 15.6247 52.0446 15.42C52.8162 14.8365 53.771 14.5387 54.7425 14.5785C55.6582 14.5982 56.5573 14.8238 57.3713 15.2381C57.6534 15.3926 57.9561 15.5075 58.2706 15.5792C58.2706 15.5792 60.5765 10.0752 60.5765 9.82502C60.2814 9.4868 59.9055 9.2265 59.4827 9.06765C59.0599 8.9088 58.6037 8.85643 58.1553 8.91526ZM42.6134 18.4677C42.5329 16.8424 42.0598 15.2597 41.2335 13.8513C40.4073 12.4429 39.2517 11.2496 37.8632 10.3709C36.2131 9.49284 34.3772 9.00871 32.503 8.95736C30.6288 8.90601 28.7685 9.28887 27.0715 10.0752C24.6722 11.3231 22.8606 13.4444 22.0215 15.9886C21.1549 18.8371 21.1549 21.8738 22.0215 24.7223C22.4759 26.2791 23.325 27.6959 24.4889 28.839C25.9383 30.234 27.8074 31.1278 29.8155 31.3863C31.1046 31.4926 32.4004 31.4926 33.6895 31.3863C34.1638 31.3151 34.6335 31.2164 35.0961 31.0906C36.973 30.5727 38.6616 29.5384 39.9643 28.1085C41.267 26.6786 42.1298 24.9124 42.452 23.0165C42.6822 21.5113 42.7363 19.9851 42.6134 18.4677ZM33.0208 29.8397C30.7148 30.522 28.9854 28.3158 28.4089 23.6761C28.1972 21.247 28.1972 18.8044 28.4089 16.3753C28.8701 12.6453 30.0461 10.7575 31.8678 10.7575C32.2353 10.7351 32.603 10.7997 32.94 10.9461C33.2769 11.0925 33.5735 11.3164 33.8048 11.599C35.3497 13.1229 36.1107 16.1478 36.1107 20.6966C36.3025 23.271 35.8923 25.8544 34.9116 28.2476C34.4786 28.9456 33.8086 29.4694 33.0208 29.726V29.8397ZM74.5273 9.37014C73.8766 9.28756 73.2179 9.28756 72.5673 9.37014C71.3183 9.36909 70.0836 9.63281 68.947 10.1434L68.2321 10.4391V5.50367C68.3571 3.83805 68.3571 2.16561 68.2321 0.5C67.9554 0.5 59.1468 2.16031 59.0085 2.22854C58.9404 2.39646 58.9404 2.58373 59.0085 2.75165C59.0085 3.22927 59.0085 3.20653 60.0461 3.43397C60.3375 3.49841 60.6173 3.60575 60.8763 3.75238C61.3264 4.16987 61.6259 4.72091 61.7294 5.32172C61.992 7.05258 62.077 8.80515 61.9831 10.5528V30.522L62.6057 30.6585C63.5281 30.8632 66.1338 31.2953 66.9869 31.3863C68.6906 31.5199 70.4024 31.5199 72.1061 31.3863C73.9971 31.1958 75.7996 30.4999 77.3193 29.3737C78.839 28.2475 80.0183 26.7336 80.7302 24.9952C81.1546 23.8795 81.4486 22.7196 81.6065 21.5382C81.7437 19.9378 81.6895 18.3271 81.445 16.7392C81.1977 14.9593 80.4012 13.2975 79.1637 11.9793C77.9262 10.661 76.3075 9.75013 74.5273 9.37014ZM68.4858 29.453C68.4858 29.1574 68.2552 19.1955 68.3013 15.2153V12.0994L68.97 11.9402C69.4212 11.8764 69.8793 11.8764 70.3305 11.9402C70.8295 11.8902 71.3314 12.002 71.7602 12.2586C72.6213 12.8448 73.3364 13.6161 73.8517 14.5143C74.3669 15.4125 74.6689 16.4143 74.7348 17.4442C74.9028 19.1004 74.9028 20.769 74.7348 22.4252C74.5968 24.8323 73.6565 27.127 72.06 28.9527C71.6068 29.3772 71.0378 29.6618 70.4228 29.7715C69.9574 29.8513 69.4815 29.8513 69.0161 29.7715C68.578 29.7715 68.578 29.635 68.578 29.453H68.4858Z" fill="white"/>
</g>
<defs>
<clipPath id="clip0_2_554">
<rect width="120" height="31" fill="white" transform="translate(0 0.5)"/>
</clipPath>
</defs>
</svg>
