<svg width="24" height="25" viewBox="0 0 24 25" fill="none" xmlns="http://www.w3.org/2000/svg">
<g id="heroicons-solid/arrows-right-left">
<path id="Vector (Stroke)" fill-rule="evenodd" clip-rule="evenodd" d="M15.9697 2.96967C16.2626 2.67678 16.7374 2.67678 17.0303 2.96967L21.5303 7.46967C21.671 7.61032 21.75 7.80109 21.75 8C21.75 8.19891 21.671 8.38968 21.5303 8.53033L17.0303 13.0303C16.7374 13.3232 16.2626 13.3232 15.9697 13.0303C15.6768 12.7374 15.6768 12.2626 15.9697 11.9697L19.1893 8.75L7.5 8.75C7.08579 8.75 6.75 8.41421 6.75 8C6.75 7.58579 7.08579 7.25 7.5 7.25L19.1893 7.25L15.9697 4.03033C15.6768 3.73744 15.6768 3.26256 15.9697 2.96967ZM8.03033 11.9697C8.32322 12.2626 8.32322 12.7374 8.03033 13.0303L4.81066 16.25H16.5C16.9142 16.25 17.25 16.5858 17.25 17C17.25 17.4142 16.9142 17.75 16.5 17.75H4.81066L8.03033 20.9697C8.32322 21.2626 8.32322 21.7374 8.03033 22.0303C7.73744 22.3232 7.26256 22.3232 6.96967 22.0303L2.46967 17.5303C2.17678 17.2374 2.17678 16.7626 2.46967 16.4697L6.96967 11.9697C7.26256 11.6768 7.73744 11.6768 8.03033 11.9697Z" fill="white"/>
</g>
</svg>
