<svg width="60" height="60" viewBox="0 0 60 60" fill="none" xmlns="http://www.w3.org/2000/svg">
<rect x="0.5" y="0.5" width="59" height="59" rx="29.5" fill="white"/>
<path fill-rule="evenodd" clip-rule="evenodd" d="M21.75 30C21.75 29.5858 22.0858 29.25 22.5 29.25L35.6893 29.25L30.2197 23.7803C29.9268 23.4874 29.9268 23.0126 30.2197 22.7197C30.5126 22.4268 30.9874 22.4268 31.2803 22.7197L38.0303 29.4697C38.3232 29.7626 38.3232 30.2374 38.0303 30.5303L31.2803 37.2803C30.9874 37.5732 30.5126 37.5732 30.2197 37.2803C29.9268 36.9874 29.9268 36.5126 30.2197 36.2197L35.6893 30.75L22.5 30.75C22.0858 30.75 21.75 30.4142 21.75 30Z" fill="#0F172A"/>
<rect x="0.5" y="0.5" width="59" height="59" rx="29.5" stroke="black"/>
</svg>
