<svg width="24" height="25" viewBox="0 0 24 25" fill="none" xmlns="http://www.w3.org/2000/svg">
<g id="heroicons-solid/banknotes">
<g id="Union">
<path d="M12 8C10.7574 8 9.75 9.00736 9.75 10.25C9.75 11.4926 10.7574 12.5 12 12.5C13.2426 12.5 14.25 11.4926 14.25 10.25C14.25 9.00736 13.2426 8 12 8Z" fill="white"/>
<path fill-rule="evenodd" clip-rule="evenodd" d="M1.5 5.375C1.5 4.33947 2.33947 3.5 3.375 3.5H20.625C21.6605 3.5 22.5 4.33947 22.5 5.375V15.125C22.5 16.1605 21.6605 17 20.625 17H3.375C2.33947 17 1.5 16.1605 1.5 15.125V5.375ZM8.25 10.25C8.25 8.17893 9.92893 6.5 12 6.5C14.0711 6.5 15.75 8.17893 15.75 10.25C15.75 12.3211 14.0711 14 12 14C9.92893 14 8.25 12.3211 8.25 10.25ZM18.75 9.5C18.3358 9.5 18 9.83579 18 10.25V10.2575C18 10.6717 18.3358 11.0075 18.75 11.0075H18.7575C19.1717 11.0075 19.5075 10.6717 19.5075 10.2575V10.25C19.5075 9.83579 19.1717 9.5 18.7575 9.5H18.75ZM4.5 10.25C4.5 9.83579 4.83579 9.5 5.25 9.5H5.2575C5.67171 9.5 6.0075 9.83579 6.0075 10.25V10.2575C6.0075 10.6717 5.67171 11.0075 5.2575 11.0075H5.25C4.83579 11.0075 4.5 10.6717 4.5 10.2575V10.25Z" fill="white"/>
<path d="M2.25 18.5C1.83579 18.5 1.5 18.8358 1.5 19.25C1.5 19.6642 1.83579 20 2.25 20C7.65005 20 12.8802 20.7222 17.8498 22.0749C19.0404 22.399 20.25 21.5168 20.25 20.2551V19.25C20.25 18.8358 19.9142 18.5 19.5 18.5H2.25Z" fill="white"/>
</g>
</g>
</svg>
