<svg width="25" height="25" viewBox="0 0 25 25" fill="none" xmlns="http://www.w3.org/2000/svg">
<g id="heroicons-solid/bars-3">
<path id="Vector (Stroke)" fill-rule="evenodd" clip-rule="evenodd" d="M3.16425 7.25C3.16425 6.83579 3.50003 6.5 3.91425 6.5H20.4142C20.8285 6.5 21.1642 6.83579 21.1642 7.25C21.1642 7.66421 20.8285 8 20.4142 8H3.91425C3.50003 8 3.16425 7.66421 3.16425 7.25ZM3.16425 12.5C3.16425 12.0858 3.50003 11.75 3.91425 11.75H20.4142C20.8285 11.75 21.1642 12.0858 21.1642 12.5C21.1642 12.9142 20.8285 13.25 20.4142 13.25H3.91425C3.50003 13.25 3.16425 12.9142 3.16425 12.5ZM3.16425 17.75C3.16425 17.3358 3.50003 17 3.91425 17H20.4142C20.8285 17 21.1642 17.3358 21.1642 17.75C21.1642 18.1642 20.8285 18.5 20.4142 18.5H3.91425C3.50003 18.5 3.16425 18.1642 3.16425 17.75Z" fill="white"/>
</g>
</svg>
