<svg width="24" height="25" viewBox="0 0 24 25" fill="none" xmlns="http://www.w3.org/2000/svg">
<g id="heroicons-solid/circle-stack">
<g id="Vector">
<path d="M21 6.875C21 9.56739 16.9706 11.75 12 11.75C7.02944 11.75 3 9.56739 3 6.875C3 4.18261 7.02944 2 12 2C16.9706 2 21 4.18261 21 6.875Z" fill="white"/>
<path d="M12 13.25C14.6852 13.25 17.1905 12.6637 19.0784 11.6411C19.7684 11.2673 20.4248 10.8043 20.9747 10.2567C20.9915 10.3783 21 10.5011 21 10.625C21 13.3174 16.9706 15.5 12 15.5C7.02944 15.5 3 13.3174 3 10.625C3 10.5011 3.00853 10.3783 3.02529 10.2567C3.57523 10.8043 4.23162 11.2673 4.92161 11.6411C6.80949 12.6637 9.31481 13.25 12 13.25Z" fill="white"/>
<path d="M12 17C14.6852 17 17.1905 16.4137 19.0784 15.3911C19.7684 15.0173 20.4248 14.5543 20.9747 14.0067C20.9915 14.1283 21 14.2511 21 14.375C21 17.0674 16.9706 19.25 12 19.25C7.02944 19.25 3 17.0674 3 14.375C3 14.2511 3.00853 14.1283 3.02529 14.0067C3.57523 14.5543 4.23162 15.0173 4.92161 15.3911C6.80949 16.4137 9.31481 17 12 17Z" fill="white"/>
<path d="M12 20.75C14.6852 20.75 17.1905 20.1637 19.0784 19.1411C19.7684 18.7673 20.4248 18.3043 20.9747 17.7567C20.9915 17.8783 21 18.0011 21 18.125C21 20.8174 16.9706 23 12 23C7.02944 23 3 20.8174 3 18.125C3 18.0011 3.00853 17.8783 3.02529 17.7567C3.57523 18.3043 4.23162 18.7673 4.92161 19.1411C6.80949 20.1637 9.31481 20.75 12 20.75Z" fill="white"/>
</g>
</g>
</svg>
