<svg width="20" height="21" viewBox="0 0 20 21" fill="none" xmlns="http://www.w3.org/2000/svg">
<g id="ph:copyright-light">
<path id="Vector" d="M10 2.53125C8.42393 2.53125 6.88326 2.99861 5.5728 3.87423C4.26235 4.74984 3.24097 5.99439 2.63784 7.45049C2.0347 8.90659 1.87689 10.5088 2.18437 12.0546C2.49185 13.6004 3.2508 15.0203 4.36525 16.1348C5.4797 17.2492 6.89959 18.0082 8.44538 18.3156C9.99116 18.6231 11.5934 18.4653 13.0495 17.8622C14.5056 17.259 15.7502 16.2377 16.6258 14.9272C17.5014 13.6167 17.9688 12.0761 17.9688 10.5C17.9663 8.38732 17.1259 6.36188 15.632 4.86798C14.1381 3.37409 12.1127 2.53373 10 2.53125ZM10 17.5312C8.60935 17.5312 7.24993 17.1189 6.09365 16.3463C4.93737 15.5737 4.03615 14.4755 3.50398 13.1907C2.9718 11.906 2.83255 10.4922 3.10386 9.12827C3.37516 7.76434 4.04482 6.51149 5.02816 5.52816C6.0115 4.54482 7.26435 3.87516 8.62827 3.60385C9.9922 3.33255 11.406 3.47179 12.6907 4.00397C13.9755 4.53615 15.0737 5.43736 15.8463 6.59365C16.6189 7.74993 17.0313 9.10935 17.0313 10.5C17.0292 12.3642 16.2877 14.1514 14.9696 15.4696C13.6514 16.7877 11.8642 17.5292 10 17.5312ZM7.34375 10.5C7.34375 11.0575 7.51917 11.6009 7.84514 12.0531C8.17112 12.5054 8.63113 12.8436 9.16002 13.0199C9.68891 13.1962 10.2599 13.2017 10.792 13.0354C11.3242 12.8692 11.7905 12.5398 12.125 12.0938C12.1997 11.9943 12.3108 11.9286 12.434 11.9111C12.5571 11.8936 12.6822 11.9257 12.7816 12.0004C12.8811 12.0751 12.9468 12.1862 12.9643 12.3094C12.9818 12.4325 12.9497 12.5576 12.875 12.657C12.4223 13.2603 11.7914 13.7058 11.0714 13.9305C10.3515 14.1552 9.57913 14.1478 8.86368 13.9092C8.14824 13.6706 7.52598 13.213 7.08505 12.6011C6.64411 11.9893 6.40684 11.2542 6.40684 10.5C6.40684 9.74582 6.64411 9.01075 7.08505 8.3989C7.52598 7.78704 8.14824 7.32941 8.86368 7.09082C9.57913 6.85223 10.3515 6.84477 11.0714 7.0695C11.7914 7.29422 12.4223 7.73975 12.875 8.34297C12.9497 8.44242 12.9818 8.56748 12.9643 8.69062C12.9468 8.81377 12.8811 8.92491 12.7816 8.99961C12.6822 9.07431 12.5571 9.10643 12.434 9.08892C12.3108 9.07142 12.1997 9.00571 12.125 8.90625C11.7905 8.46025 11.3242 8.1308 10.792 7.96457C10.2599 7.79834 9.68891 7.80376 9.16002 7.98006C8.63113 8.15636 8.17112 8.4946 7.84514 8.94686C7.51917 9.39913 7.34375 9.9425 7.34375 10.5Z" fill="white"/>
</g>
</svg>
