<svg width="24" height="25" viewBox="0 0 24 25" fill="none" xmlns="http://www.w3.org/2000/svg">
<g id="heroicons-solid/document-duplicate">
<g id="Union">
<path d="M7.5 3.875C7.5 2.83947 8.33947 2 9.375 2H9.75C11.8211 2 13.5 3.67893 13.5 5.75V7.625C13.5 8.66053 14.3395 9.5 15.375 9.5H17.25C19.3211 9.5 21 11.1789 21 13.25V16.625C21 17.6605 20.1605 18.5 19.125 18.5H9.375C8.33947 18.5 7.5 17.6605 7.5 16.625V3.875Z" fill="white"/>
<path d="M15 5.75C15 4.43695 14.518 3.23648 13.7212 2.3159C17.1201 3.20377 19.7962 5.87988 20.6841 9.27881C19.7635 8.48204 18.5631 8 17.25 8H15.375C15.1679 8 15 7.83211 15 7.625V5.75Z" fill="white"/>
<path d="M4.875 6.5H6V16.625C6 18.489 7.51104 20 9.375 20H16.5V21.125C16.5 22.1605 15.6605 23 14.625 23H4.875C3.83947 23 3 22.1605 3 21.125V8.375C3 7.33947 3.83947 6.5 4.875 6.5Z" fill="white"/>
</g>
</g>
</svg>
