<svg width="24" height="24" viewBox="0 0 24 24" fill="none" xmlns="http://www.w3.org/2000/svg">
<g id="ion:logo-google-playstore">
<path id="Vector" d="M2.25 2.78873V21.2106C2.25012 21.2506 2.26204 21.2896 2.28427 21.3228C2.30649 21.3561 2.33803 21.382 2.37492 21.3973C2.41182 21.4127 2.45243 21.4168 2.49166 21.4092C2.5309 21.4016 2.56701 21.3826 2.59547 21.3545L12.1875 12.0001L2.59547 2.64483C2.56701 2.61677 2.5309 2.59773 2.49166 2.59011C2.45243 2.58249 2.41182 2.58663 2.37492 2.602C2.33803 2.61737 2.30649 2.64329 2.28427 2.6765C2.26204 2.70972 2.25012 2.74877 2.25 2.78873ZM16.2094 8.15639L4.18219 1.53014L4.17469 1.52592C3.9675 1.41342 3.77062 1.69373 3.94031 1.85686L13.3683 10.8719L16.2094 8.15639ZM3.94125 22.1434C3.77062 22.3065 3.9675 22.5869 4.17562 22.4744L4.18312 22.4701L16.2094 15.8439L13.3683 13.1275L3.94125 22.1434ZM21.0647 10.8283L17.7061 8.97858L14.5481 12.0001L17.7061 15.0203L21.0647 13.172C21.9783 12.6672 21.9783 11.3331 21.0647 10.8283Z" fill="white"/>
</g>
</svg>
