<svg width="24" height="25" viewBox="0 0 24 25" fill="none" xmlns="http://www.w3.org/2000/svg">
<g id="heroicons-solid/identification">
<path id="Subtract" fill-rule="evenodd" clip-rule="evenodd" d="M4.5 4.25C2.84315 4.25 1.5 5.59315 1.5 7.25V17.75C1.5 19.4069 2.84315 20.75 4.5 20.75H19.5C21.1569 20.75 22.5 19.4069 22.5 17.75V7.25C22.5 5.59315 21.1569 4.25 19.5 4.25H4.5ZM8.625 7.25C7.38236 7.25 6.375 8.25736 6.375 9.5C6.375 10.7426 7.38236 11.75 8.625 11.75C9.86764 11.75 10.875 10.7426 10.875 9.5C10.875 8.25736 9.86764 7.25 8.625 7.25ZM4.75191 15.9528C5.3309 14.3765 6.84542 13.25 8.62496 13.25C10.4045 13.25 11.919 14.3765 12.498 15.9528C12.6271 16.3043 12.4771 16.6972 12.1466 16.8733C11.0958 17.4331 9.89627 17.75 8.62496 17.75C7.35364 17.75 6.15413 17.4331 5.10331 16.8733C4.77278 16.6972 4.62279 16.3043 4.75191 15.9528ZM15 8.75C14.5858 8.75 14.25 9.08579 14.25 9.5C14.25 9.91421 14.5858 10.25 15 10.25H18.75C19.1642 10.25 19.5 9.91421 19.5 9.5C19.5 9.08579 19.1642 8.75 18.75 8.75H15ZM14.25 12.5C14.25 12.0858 14.5858 11.75 15 11.75H18.75C19.1642 11.75 19.5 12.0858 19.5 12.5C19.5 12.9142 19.1642 13.25 18.75 13.25H15C14.5858 13.25 14.25 12.9142 14.25 12.5ZM15 14.75C14.5858 14.75 14.25 15.0858 14.25 15.5C14.25 15.9142 14.5858 16.25 15 16.25H18.75C19.1642 16.25 19.5 15.9142 19.5 15.5C19.5 15.0858 19.1642 14.75 18.75 14.75H15Z" fill="white"/>
</g>
</svg>
