<svg width="141" height="141" viewBox="0 0 141 141" fill="none" xmlns="http://www.w3.org/2000/svg">
<g id="vuesax/bold/import">
<g id="import">
<path id="Vector" d="M119.479 60.8037C114.176 33.718 87.8892 16.0394 60.8035 21.3426C33.7178 26.6458 16.0392 52.9324 21.3424 80.0181C26.6456 107.104 52.9322 124.782 80.0179 119.479C107.104 114.176 124.782 87.8894 119.479 60.8037ZM97.657 93.2513L52.3595 62.7873L55.2609 77.6059C55.6548 79.6177 54.3131 81.6127 52.3013 82.0066C50.2895 82.4005 48.2945 81.0588 47.9006 79.047L43.2604 55.347C42.8665 53.3352 44.2081 51.3402 46.2199 50.9463L69.92 46.306C71.9318 45.9121 73.9267 47.2538 74.3206 49.2656C74.7145 51.2774 73.3728 53.2724 71.361 53.6663L56.5424 56.5677L101.84 87.0317C102.72 87.6236 103.246 88.4886 103.429 89.4209C103.611 90.3532 103.45 91.3528 102.858 92.2329C101.714 93.9345 99.3586 94.3956 97.657 93.2513Z" fill="white"/>
</g>
</g>
</svg>
