<svg width="24" height="25" viewBox="0 0 24 25" fill="none" xmlns="http://www.w3.org/2000/svg">
<g id="heroicons-solid/lock-closed">
<path id="Union" fill-rule="evenodd" clip-rule="evenodd" d="M12 2C9.10051 2 6.75 4.35051 6.75 7.25V10.25C5.09315 10.25 3.75 11.5931 3.75 13.25V20C3.75 21.6569 5.09315 23 6.75 23H17.25C18.9069 23 20.25 21.6569 20.25 20V13.25C20.25 11.5931 18.9069 10.25 17.25 10.25V7.25C17.25 4.35051 14.8995 2 12 2ZM15.75 10.25V7.25C15.75 5.17893 14.0711 3.5 12 3.5C9.92893 3.5 8.25 5.17893 8.25 7.25V10.25H15.75Z" fill="white"/>
</g>
</svg>
