<svg width="200" height="200" viewBox="0 0 200 200" fill="none" xmlns="http://www.w3.org/2000/svg">
<path d="M85.4167 83.5833C85.4167 88.0833 86.6667 88.75 89.5 89.75L93.75 91.25V77.0833H91.25C88.0834 77.0833 85.4167 80 85.4167 83.5833Z" fill="#202020"/>
<path d="M106.25 122.917H108.75C112 122.917 114.583 120 114.583 116.417C114.583 111.917 113.333 111.25 110.5 110.25L106.25 108.75V122.917Z" fill="#202020"/>
<path d="M163.167 45.6667L146.083 62.75C144.833 64 143.25 64.5834 141.667 64.5834C140.083 64.5834 138.5 64 137.25 62.75C134.833 60.3334 134.833 56.3334 137.25 53.9167L154.333 36.8334C139.667 24.3334 120.75 16.6667 100 16.6667C54 16.6667 16.6667 54 16.6667 100C16.6667 146 54 183.333 100 183.333C146 183.333 183.333 146 183.333 100C183.333 79.25 175.667 60.3334 163.167 45.6667ZM114.583 98.5C119.917 100.417 127.083 104.25 127.083 116.5C127.083 126.917 118.833 135.5 108.75 135.5H106.25V137.583C106.25 141 103.417 143.833 100 143.833C96.5834 143.833 93.75 141 93.75 137.583V135.5H93.0834C82 135.5 72.9167 126.167 72.9167 114.667C72.9167 111.167 75.75 108.333 79.1667 108.333C82.5834 108.333 85.4167 111.167 85.4167 114.583C85.4167 119.167 88.8334 122.917 93.0834 122.917H93.75V104.417L85.4167 101.5C80.0834 99.5834 72.9167 95.75 72.9167 83.5C72.9167 73.0834 81.1667 64.5 91.25 64.5H93.75V62.5C93.75 59.0834 96.5834 56.25 100 56.25C103.417 56.25 106.25 59.0834 106.25 62.5V64.5834H106.917C118 64.5834 127.083 73.9167 127.083 85.4167C127.083 88.8334 124.25 91.6667 120.833 91.6667C117.417 91.6667 114.583 88.8334 114.583 85.4167C114.583 80.8334 111.167 77.0834 106.917 77.0834H106.25V95.5834L114.583 98.5Z" fill="#202020"/>
<path d="M189.083 14.25C188.417 12.75 187.25 11.5 185.667 10.8334C184.917 10.5834 184.167 10.4167 183.333 10.4167H150C146.583 10.4167 143.75 13.25 143.75 16.6667C143.75 20.0834 146.583 22.9167 150 22.9167H168.25L154.333 36.8334C157.5 39.5834 160.417 42.5 163.167 45.6667L177.083 31.75V50C177.083 53.4167 179.917 56.25 183.333 56.25C186.75 56.25 189.583 53.4167 189.583 50V16.6667C189.583 15.8334 189.417 15.0834 189.083 14.25Z" fill="#202020"/>
</svg>
