<svg width="200" height="200" viewBox="0 0 200 200" fill="none" xmlns="http://www.w3.org/2000/svg">
<path d="M99.5 18.4167L79.4167 65.1667H59.3333C56 65.1667 52.75 65.4167 49.5833 66.0833L57.9167 46.0833L58.25 45.3333L58.75 44C59 43.4167 59.1667 42.9167 59.4167 42.5C69.0833 20.0833 79.9167 13.0833 99.5 18.4167Z" fill="#202020"/>
<path d="M156.083 67.4167L155.917 67.3333C150.917 65.9167 145.833 65.1667 140.667 65.1667H88.5L107.25 21.5833L107.5 21C108.667 21.4167 109.917 22 111.167 22.4167L129.583 30.1667C139.833 34.4167 147 38.8333 151.417 44.1667C152.167 45.1667 152.833 46.0833 153.5 47.1667C154.25 48.3333 154.833 49.5 155.167 50.75C155.5 51.5 155.75 52.1667 155.917 52.9167C157.167 57.1667 157.25 62 156.083 67.4167Z" fill="#202020"/>
<path d="M152.417 79.3334C148.667 78.25 144.75 77.6667 140.667 77.6667H59.3333C53.6667 77.6667 48.3333 78.75 43.3333 80.9167C28.8333 87.1667 18.6667 101.583 18.6667 118.333V134.583C18.6667 136.583 18.8333 138.5 19.0833 140.5C20.9167 167 35.0833 181.167 61.5833 182.917C63.5 183.167 65.4167 183.333 67.5 183.333H132.5C163.333 183.333 179.583 168.667 181.167 139.5C181.25 137.917 181.333 136.25 181.333 134.583V118.333C181.333 99.9167 169.083 84.4167 152.417 79.3334ZM120.833 139.583H79.1667C75.75 139.583 72.9167 136.75 72.9167 133.333C72.9167 129.917 75.75 127.083 79.1667 127.083H120.833C124.25 127.083 127.083 129.917 127.083 133.333C127.083 136.75 124.25 139.583 120.833 139.583Z" fill="#202020"/>
</svg>
