<svg width="100" height="100" viewBox="0 0 100 100" fill="none" xmlns="http://www.w3.org/2000/svg">
<g id="QR_code_for_mobile_English_Wikipedia 1">
<rect width="100" height="100" fill="white"/>
<path id="Vector" d="M10.8108 79.73V70.2705H29.7297V89.1894H10.8108V79.73ZM27.027 79.73V72.9732H13.5135V86.4867H27.027V79.73ZM16.2162 79.73V75.6759H24.3243V83.784H16.2162V79.73ZM35.1351 87.8381V86.4867H32.4324V81.0813H35.1351V72.9732H37.8378V70.2705H32.4324V67.5678H21.6216V64.8651H24.3243V62.1624H18.9189V67.5678H16.2162V64.8651H10.8108V62.1624H16.2162V56.757H13.5135V59.4597H10.8108V54.0543H16.2162V56.757H18.9189V59.4597H21.6216V56.757H24.3243V59.4597H29.7297V56.757H27.027V54.0543H18.9189V51.3516H27.027V48.6489H18.9189V45.9462H16.2162V48.6489H10.8108V40.5408H13.5135V43.2435H29.7297V40.5408H27.027V37.8381H21.6216V40.5408H18.9189V37.8381H13.5135V32.4327H18.9189V37.8381H21.6216V35.1354H27.027V32.4327H29.7297V35.1354H27.027V37.8381H29.7297V40.5408H32.4324V35.1354H35.1351V32.4327H32.4324V24.3245H37.8378V27.0273H40.5405V29.73H37.8378V32.4327H40.5405V48.6489H35.1351V45.9462H32.4324V48.6489H29.7297V51.3516H27.027V54.0543H29.7297V56.757H32.4324V59.4597H37.8378V56.757H35.1351V54.0543H32.4324V51.3516H37.8378V56.757H40.5405V51.3516H43.2432V56.757H45.9459V48.6489H48.6486V45.9462H51.3513V48.6489H48.6486V51.3516H51.3513V54.0543H59.4594V51.3516H56.7567V48.6489H54.054V43.2435H51.3513V40.5408H54.054V37.8381H56.7567V35.1354H54.054V32.4327H51.3513V37.8381H48.6486V35.1354H45.9459V37.8381H43.2432V35.1354H45.9459V32.4327H43.2432V24.3245H40.5405V21.6218H43.2432V24.3245H45.9459V13.5137H48.6486V18.9191H54.054V16.2164H51.3513V10.811H56.7567V13.5137H54.054V16.2164H59.4594V13.5137H62.1621V10.811H67.5676V18.9191H62.1621V16.2164H59.4594V21.6218H62.1621V29.73H64.8648V27.0273H67.5676V40.5408H72.973V37.8381H70.2703V32.4327H75.6757V40.5408H81.0811V37.8381H78.3784V32.4327H81.0811V37.8381H83.7838V35.1354H89.1892V40.5408H86.4865V37.8381H83.7838V40.5408H81.0811V48.6489H83.7838V51.3516H81.0811V54.0543H75.6757V56.757H72.973V59.4597H67.5676V56.757H64.8648V54.0543H62.1621V59.4597H64.8648V62.1624H72.973V64.8651H78.3784V62.1624H75.6757V59.4597H78.3784V56.757H81.0811V59.4597H83.7838V62.1624H86.4865V56.757H83.7838V54.0543H89.1892V62.1624H86.4865V67.5678H89.1892V72.9732H86.4865V81.0813H89.1892V83.784H81.0811V89.1894H72.973V86.4867H78.3784V83.784H72.973V78.3786H70.2703V83.784H67.5676V86.4867H70.2703V89.1894H64.8648V81.0813H62.1621V86.4867H59.4594V83.784H56.7567V72.9732H59.4594V81.0813H62.1621V72.9732H64.8648V67.5678H62.1621V64.8651H59.4594V62.1624H62.1621V59.4597H59.4594V56.757H56.7567V67.5678H59.4594V70.2705H54.054V75.6759H51.3513V81.0813H54.054V83.784H51.3513V86.4867H56.7567V89.1894H51.3513V86.4867H48.6486V83.784H45.9459V89.1894H35.1351V87.8381ZM43.2432 83.784V81.0813H45.9459V72.9732H40.5405V75.6759H43.2432V78.3786H37.8378V81.0813H35.1351V83.784H37.8378V86.4867H43.2432V83.784ZM81.0811 81.0813V78.3786H83.7838V72.9732H86.4865V70.2705H83.7838V62.1624H81.0811V70.2705H83.7838V72.9732H81.0811V75.6759H78.3784V83.784H81.0811V81.0813ZM67.5676 79.73V78.3786H64.8648V81.0813H67.5676V79.73ZM51.3513 74.3246V72.9732H48.6486V75.6759H51.3513V74.3246ZM75.6757 71.6218V67.5678H67.5676V75.6759H75.6757V71.6218ZM70.2703 71.6218V70.2705H72.973V72.9732H70.2703V71.6218ZM48.6486 68.9191V67.5678H54.054V64.8651H48.6486V62.1624H45.9459V64.8651H48.6486V67.5678H43.2432V64.8651H40.5405V67.5678H37.8378V64.8651H35.1351V62.1624H32.4324V59.4597H29.7297V62.1624H27.027V64.8651H29.7297V62.1624H32.4324V64.8651H35.1351V67.5678H37.8378V70.2705H48.6486V68.9191ZM40.5405 60.811V59.4597H37.8378V62.1624H40.5405V60.811ZM54.054 59.4597V56.757H48.6486V59.4597H51.3513V62.1624H54.054V59.4597ZM70.2703 55.4056V54.0543H67.5676V56.757H70.2703V55.4056ZM75.6757 52.7029V51.3516H78.3784V43.2435H75.6757V45.9462H72.973V48.6489H70.2703V45.9462H64.8648V43.2435H62.1621V40.5408H64.8648V32.4327H62.1621V29.73H59.4594V27.0273H56.7567V29.73H54.054V21.6218H56.7567V24.3245H59.4594V21.6218H56.7567V18.9191H54.054V21.6218H51.3513V29.73H54.054V32.4327H56.7567V29.73H59.4594V37.8381H56.7567V40.5408H54.054V43.2435H56.7567V48.6489H59.4594V45.9462H64.8648V48.6489H67.5676V51.3516H72.973V54.0543H75.6757V52.7029ZM72.973 50.0002V48.6489H75.6757V51.3516H72.973V50.0002ZM29.7297 47.2975V45.9462H32.4324V43.2435H29.7297V45.9462H27.027V48.6489H29.7297V47.2975ZM37.8378 41.8921V40.5408H35.1351V43.2435H37.8378V41.8921ZM37.8378 28.3786V27.0273H35.1351V29.73H37.8378V28.3786ZM48.6486 27.0273V24.3245H45.9459V29.73H48.6486V27.0273ZM64.8648 14.8651V13.5137H62.1621V16.2164H64.8648V14.8651ZM86.4865 87.8381V86.4867H89.1892V89.1894H86.4865V87.8381ZM86.4865 48.6489V45.9462H83.7838V43.2435H86.4865V45.9462H89.1892V51.3516H86.4865V48.6489ZM10.8108 20.2705V10.811H29.7297V29.73H10.8108V20.2705ZM27.027 20.2705V13.5137H13.5135V27.0273H27.027V20.2705ZM16.2162 20.2705V16.2164H24.3243V24.3245H16.2162V20.2705ZM70.2703 20.2705V10.811H89.1892V29.73H70.2703V20.2705ZM86.4865 20.2705V13.5137H72.973V27.0273H86.4865V20.2705ZM75.6757 20.2705V16.2164H83.7838V24.3245H75.6757V20.2705ZM32.4324 20.2705V18.9191H35.1351V21.6218H32.4324V20.2705ZM37.8378 17.5678V16.2164H35.1351V10.811H37.8378V13.5137H40.5405V10.811H43.2432V13.5137H40.5405V18.9191H37.8378V17.5678Z" fill="black"/>
</g>
</svg>
