<svg width="364" height="153" viewBox="0 0 364 153" fill="none" xmlns="http://www.w3.org/2000/svg">
<path d="M119.479 60.8037C114.176 33.718 87.8892 16.0394 60.8035 21.3426C33.7178 26.6458 16.0392 52.9324 21.3424 80.0181C26.6456 107.104 52.9322 124.782 80.0179 119.479C107.104 114.176 124.782 87.8894 119.479 60.8037ZM97.657 93.2513L52.3595 62.7873L55.2609 77.6059C55.6548 79.6177 54.3131 81.6127 52.3013 82.0066C50.2895 82.4005 48.2945 81.0588 47.9006 79.047L43.2604 55.347C42.8665 53.3352 44.2081 51.3402 46.2199 50.9463L69.92 46.306C71.9318 45.9121 73.9267 47.2538 74.3206 49.2656C74.7145 51.2774 73.3728 53.2724 71.361 53.6663L56.5424 56.5677L101.84 87.0317C102.72 87.6236 103.246 88.4886 103.429 89.4209C103.611 90.3532 103.45 91.3528 102.858 92.2329C101.714 93.9345 99.3586 94.3956 97.657 93.2513Z" fill="white"/>
<path d="M164.821 41.8125V76.375H186.384C197.946 76.375 204.509 70.125 204.509 59.0625C204.509 48.25 197.509 41.8125 185.884 41.8125H164.821ZM164.821 86.3125V122H153.571V31.8125H187.384C204.759 31.8125 216.134 42.4375 216.134 58.6875C216.134 71.25 209.321 81 198.009 84.5625L218.884 122H205.696L186.384 86.3125H164.821ZM250.071 113.875C260.321 113.875 268.196 106.688 268.196 97.3125V92L250.821 93.0625C242.071 93.625 237.071 97.5 237.071 103.625C237.071 109.812 242.259 113.875 250.071 113.875ZM247.634 123.125C234.696 123.125 226.009 115.312 226.009 103.625C226.009 92.5 234.571 85.5 249.571 84.625L268.196 83.5625V78.125C268.196 70.1875 262.946 65.4375 253.946 65.4375C245.571 65.4375 240.321 69.375 238.946 75.75H228.446C229.196 64.5 238.821 55.875 254.196 55.875C269.446 55.875 279.071 64.125 279.071 77.0625V122H268.759V110.812H268.509C264.634 118.25 256.384 123.125 247.634 123.125ZM296.384 122V65.9375H287.321V57H296.384V49.75C296.384 37.25 302.196 31.3125 314.196 31.3125C316.634 31.3125 319.259 31.5625 320.821 31.8125V40.625C319.509 40.4375 317.696 40.25 315.884 40.25C310.009 40.25 307.196 43.375 307.196 49.8125V57H320.509V65.9375H307.259V122H296.384ZM335.259 41.3125H346.134V57H358.759V65.9375H346.134V104.562C346.134 110.5 348.634 113.188 354.196 113.188C355.446 113.188 357.946 113 358.696 112.875V122C357.384 122.312 354.384 122.5 351.821 122.5C339.884 122.5 335.259 117.625 335.259 105.125V65.9375H325.571V57H335.259V41.3125Z" fill="white"/>
</svg>
