<svg width="74" height="29" viewBox="0 0 74 29" fill="none" xmlns="http://www.w3.org/2000/svg">
<path d="M23.8958 12.1608C22.8352 6.74369 17.5778 3.20797 12.1607 4.26861C6.74355 5.32925 3.20784 10.5866 4.26847 16.0037C5.32911 21.4209 10.5864 24.9566 16.0036 23.8959C21.4207 22.8353 24.9564 17.578 23.8958 12.1608ZM19.5314 18.6504L10.4719 12.5576L11.0522 15.5213C11.131 15.9236 10.8626 16.3226 10.4603 16.4014C10.0579 16.4802 9.65891 16.2119 9.58013 15.8095L8.65207 11.0695C8.57329 10.6671 8.84163 10.2681 9.24399 10.1894L13.984 9.26131C14.3864 9.18253 14.7853 9.45086 14.8641 9.85322C14.9429 10.2556 14.6746 10.6546 14.2722 10.7334L11.3085 11.3136L20.368 17.4064C20.544 17.5248 20.6492 17.6978 20.6857 17.8843C20.7222 18.0707 20.69 18.2707 20.5717 18.4467C20.3428 18.787 19.8717 18.8792 19.5314 18.6504Z" fill="white"/>
<path d="M35.9142 7.96484V14.4453H39.9572C42.1252 14.4453 43.3557 13.2734 43.3557 11.1992C43.3557 9.17188 42.0432 7.96484 39.8635 7.96484H35.9142ZM35.9142 16.3086V23H33.8049V6.08984H40.1447C43.4025 6.08984 45.5353 8.08203 45.5353 11.1289C45.5353 13.4844 44.258 15.3125 42.1369 15.9805L46.051 23H43.5783L39.9572 16.3086H35.9142ZM51.8986 21.4766C53.8205 21.4766 55.2971 20.1289 55.2971 18.3711V17.375L52.0392 17.5742C50.3986 17.6797 49.4611 18.4062 49.4611 19.5547C49.4611 20.7148 50.4338 21.4766 51.8986 21.4766ZM51.4416 23.2109C49.0158 23.2109 47.3869 21.7461 47.3869 19.5547C47.3869 17.4688 48.9924 16.1562 51.8049 15.9922L55.2971 15.793V14.7734C55.2971 13.2852 54.3127 12.3945 52.6252 12.3945C51.0549 12.3945 50.0705 13.1328 49.8127 14.3281H47.8439C47.9846 12.2188 49.7892 10.6016 52.6721 10.6016C55.5314 10.6016 57.3361 12.1484 57.3361 14.5742V23H55.4025V20.9023H55.3557C54.6291 22.2969 53.0822 23.2109 51.4416 23.2109ZM60.5822 23V12.4883H58.883V10.8125H60.5822V9.45312C60.5822 7.10938 61.6721 5.99609 63.9221 5.99609C64.3791 5.99609 64.8713 6.04297 65.1642 6.08984V7.74219C64.9182 7.70703 64.5783 7.67188 64.2385 7.67188C63.1369 7.67188 62.6096 8.25781 62.6096 9.46484V10.8125H65.1057V12.4883H62.6213V23H60.5822ZM67.8713 7.87109H69.9103V10.8125H72.2775V12.4883H69.9103V19.7305C69.9103 20.8438 70.3791 21.3477 71.4221 21.3477C71.6564 21.3477 72.1252 21.3125 72.2658 21.2891V23C72.0197 23.0586 71.4572 23.0938 70.9767 23.0938C68.7385 23.0938 67.8713 22.1797 67.8713 19.8359V12.4883H66.0549V10.8125H67.8713V7.87109Z" fill="white"/>
</svg>
