<svg width="120" height="34" viewBox="0 0 120 34" fill="none" xmlns="http://www.w3.org/2000/svg">
<g id="reuters-2-1 1" clip-path="url(#clip0_2_567)">
<path id="Vector" d="M54.6468 22.6631H52.6723C52.4952 22.6631 52.4292 22.5016 52.3492 22.3448L50.0196 18.4759H49.662C49.2398 18.4759 47.9326 18.4306 47.5607 18.4103V22.3448C47.5607 22.5191 47.43 22.6631 47.2514 22.6631H45.6345C45.5491 22.6626 45.4673 22.6289 45.4069 22.5693C45.3465 22.5098 45.3124 22.4291 45.3119 22.3448V11.8884C45.3119 11.5682 45.5033 11.4568 45.8288 11.4096C46.6713 11.2816 48.4792 11.2027 49.6615 11.2027C52.1516 11.2027 54.452 12.0806 54.452 14.8086V14.9527C54.452 16.6423 53.5952 17.5669 52.2693 18.0745L54.8067 22.3448C54.8402 22.393 54.8402 22.4379 54.8402 22.4737C54.8407 22.5819 54.7761 22.6631 54.6468 22.6631ZM52.2205 14.8086C52.2205 13.612 51.2794 13.102 49.662 13.102C49.3212 13.102 47.8498 13.1337 47.5607 13.1648V16.6253C47.8167 16.6409 49.3839 16.6734 49.662 16.6734C51.3259 16.6734 52.2205 16.3561 52.2205 14.9527V14.8086ZM59.1525 19.52C59.1525 20.8583 59.2047 20.8932 60.4277 20.8932H64.5217C64.6076 20.8935 64.6898 20.9271 64.7506 20.9869C64.8114 21.0467 64.8458 21.1278 64.8463 21.2124V22.2315C64.8463 22.4567 64.7649 22.5366 64.5217 22.5672C64.0048 22.6475 62.9512 22.7897 61.0279 22.7897C58.3436 22.7897 56.9191 22.8081 56.9191 19.52V14.4719C56.9191 11.1848 58.3436 11.2032 61.0279 11.2032C62.9512 11.2032 64.0048 11.3472 64.5217 11.4261C64.7649 11.4568 64.8463 11.538 64.8463 11.7619V12.7814C64.8463 12.9556 64.7003 13.1025 64.5217 13.1025H60.4277C59.2047 13.1025 59.1525 13.1379 59.1525 14.4719V15.9358H64.3284C64.4138 15.9362 64.4956 15.9697 64.5562 16.029C64.6169 16.0884 64.6514 16.1689 64.6524 16.2532V17.4049C64.6517 17.4894 64.6172 17.5702 64.5566 17.6298C64.496 17.6895 64.414 17.7232 64.3284 17.7237H59.1525V19.52ZM72.1076 22.7897C69.5061 22.7897 67.2645 21.6738 67.2645 18.2733V11.6339C67.2645 11.4568 67.4124 11.3298 67.59 11.3298H69.1883C69.3678 11.3298 69.5123 11.4568 69.5123 11.6339V18.2733C69.5123 20.0933 70.3648 20.9565 72.1081 20.9565C73.8562 20.9565 74.7082 20.0933 74.7082 18.2733V11.6339C74.7082 11.4568 74.8528 11.3298 75.0304 11.3298H76.631C76.8105 11.3298 76.9565 11.4568 76.9565 11.6339V18.2733C76.9556 21.6733 74.713 22.7897 72.1076 22.7897ZM87.5896 13.1795H84.3634V22.3448C84.362 22.4296 84.327 22.5105 84.2657 22.57C84.2045 22.6296 84.122 22.663 84.036 22.6631H82.4354C82.3498 22.6627 82.2678 22.6291 82.2071 22.5696C82.1465 22.51 82.1121 22.4293 82.1113 22.3448V13.1795H78.8827C78.707 13.1795 78.561 13.0699 78.561 12.8942V11.6339C78.561 11.4568 78.707 11.3298 78.8827 11.3298H87.5892C87.7639 11.3298 87.9099 11.4568 87.9099 11.6339V12.8942C87.9103 13.0699 87.7648 13.1795 87.5896 13.1795ZM109.552 22.6631H107.578C107.4 22.6631 107.337 22.5016 107.256 22.3448L104.926 18.4759H104.565C104.147 18.4759 102.838 18.4306 102.464 18.4103V22.3448C102.464 22.5191 102.335 22.6631 102.159 22.6631H100.543C100.458 22.663 100.375 22.6295 100.315 22.5699C100.254 22.5103 100.219 22.4294 100.219 22.3448V11.8884C100.219 11.5682 100.41 11.4568 100.735 11.4096C101.575 11.2816 103.386 11.2027 104.564 11.2027C107.057 11.2027 109.356 12.0806 109.356 14.8086V14.9527C109.356 16.6423 108.497 17.5669 107.172 18.0745L109.714 22.3448C109.739 22.3832 109.75 22.4284 109.747 22.4737C109.747 22.5819 109.681 22.6631 109.552 22.6631ZM107.126 14.8086C107.126 13.612 106.185 13.102 104.565 13.102C104.227 13.102 102.756 13.1337 102.464 13.1648V16.6253C102.726 16.6409 104.294 16.6734 104.565 16.6734C106.233 16.6734 107.126 16.3561 107.126 14.9527V14.8086ZM115.725 22.7967C114.295 22.7967 112.847 22.555 112.069 22.3788C111.909 22.3467 111.762 22.2357 111.762 22.0606V20.9112C111.762 20.7369 111.909 20.6075 112.069 20.6075H112.101C112.749 20.6878 114.263 20.8951 115.758 20.8951C117.196 20.8951 117.637 20.387 117.637 19.4629C117.637 18.2658 114.741 17.6032 113.328 17.029C111.921 16.4548 111.422 15.3555 111.422 14.2401C111.422 12.4839 112.855 11.2075 115.862 11.2075C117.404 11.2075 118.815 11.4965 119.365 11.6268C119.528 11.6589 119.655 11.7708 119.655 11.9295V13.1101C119.655 13.2678 119.544 13.3967 119.38 13.3967H119.349C118.281 13.3018 117.174 13.1077 115.768 13.1077C114.569 13.1077 113.673 13.5223 113.673 14.2401C113.673 14.7652 114.281 15.2473 114.999 15.5288C115.717 15.8079 116.658 16.1691 117.734 16.596C119.096 17.1395 119.98 17.9314 119.98 19.4629C119.979 21.0731 118.961 22.7967 115.725 22.7967ZM91.8072 19.52C91.8072 20.8583 91.8574 20.8932 93.0833 20.8932H97.1802C97.2654 20.8945 97.3466 20.9286 97.4066 20.9882C97.4666 21.0479 97.5004 21.1284 97.5009 21.2124V22.2315C97.5009 22.4567 97.4195 22.5366 97.1802 22.5672C96.6594 22.6475 95.6078 22.7897 93.6845 22.7897C90.9949 22.7897 89.5737 22.8081 89.5737 19.52V14.4719C89.5737 11.1848 90.9949 11.2032 93.6845 11.2032C95.6078 11.2032 96.6594 11.3472 97.1802 11.4261C97.4195 11.4568 97.5009 11.538 97.5009 11.7619V12.7814C97.5009 12.9556 97.354 13.1025 97.1802 13.1025H93.0833C91.8574 13.1025 91.8072 13.1379 91.8072 14.4719V15.9358H96.9835C97.163 15.9358 97.3042 16.0808 97.3042 16.2532V17.4049C97.3044 17.4891 97.2708 17.57 97.2107 17.6297C97.1505 17.6895 97.0688 17.7233 96.9835 17.7237H91.8072V19.52ZM25.9225 10.7914C25.7056 11.0172 25.4067 11.1487 25.0915 11.1572C24.7763 11.1657 24.4706 11.0505 24.2414 10.8368C24.1275 10.7312 24.0359 10.6045 23.9719 10.4639C23.9078 10.3233 23.8726 10.1715 23.8682 10.0174C23.8639 9.86331 23.8904 9.70987 23.9464 9.56595C24.0025 9.42202 24.0868 9.29044 24.1945 9.1788C24.3013 9.06646 24.4295 8.97601 24.5718 8.91263C24.7141 8.84925 24.8676 8.81419 25.0236 8.80945C25.1797 8.80471 25.3351 8.83039 25.4811 8.88502C25.627 8.93965 25.7606 9.02215 25.8742 9.1278C26.1039 9.34227 26.238 9.63787 26.247 9.94976C26.2561 10.2616 26.1394 10.5643 25.9225 10.7914ZM14.0683 8.12433C13.9548 8.0195 13.8039 7.96317 13.6484 7.96759C13.493 7.97201 13.3456 8.03683 13.2383 8.14794C13.1322 8.25965 13.0751 8.40823 13.0796 8.56128C13.0841 8.71432 13.1498 8.85941 13.2623 8.96488C13.3758 9.06982 13.5269 9.12615 13.6824 9.12154C13.8379 9.11694 13.9853 9.05179 14.0923 8.94033C14.1984 8.82878 14.2554 8.68035 14.2509 8.52746C14.2464 8.37457 14.1808 8.22964 14.0683 8.12433ZM17.0404 7.00894C16.9003 6.8798 16.7142 6.81055 16.5225 6.8163C16.3309 6.82205 16.1493 6.90233 16.0175 7.03963C15.9522 7.10806 15.9012 7.1885 15.8674 7.27637C15.8336 7.36424 15.8177 7.45781 15.8206 7.55174C15.8235 7.64567 15.8451 7.73812 15.8842 7.82381C15.9234 7.9095 15.9792 7.98674 16.0486 8.05113C16.1889 8.18012 16.3753 8.24913 16.567 8.24312C16.7587 8.2371 16.9402 8.15655 17.072 8.01902C17.2028 7.88056 17.2728 7.69674 17.2669 7.50757C17.261 7.3184 17.1796 7.13919 17.0404 7.00894ZM20.2283 6.77897C20.0506 6.6145 19.8141 6.52611 19.5705 6.5331C19.3269 6.54009 19.096 6.64189 18.9283 6.81627C18.7694 6.99295 18.6866 7.22368 18.6973 7.45957C18.708 7.69547 18.8113 7.918 18.9854 8.08001C19.1595 8.24203 19.3908 8.33081 19.6301 8.32753C19.8694 8.32426 20.0981 8.22919 20.2676 8.06247C20.4344 7.88689 20.5239 7.65326 20.5166 7.41272C20.5092 7.17218 20.4056 6.94431 20.2283 6.77897ZM23.2444 7.54066C23.1457 7.44839 23.0295 7.37626 22.9025 7.32841C22.7754 7.28056 22.6401 7.25794 22.5041 7.26185C22.3682 7.26575 22.2344 7.29611 22.1104 7.35117C21.9864 7.40623 21.8747 7.48491 21.7816 7.58269C21.6883 7.68008 21.6153 7.79465 21.5669 7.91986C21.5184 8.04506 21.4955 8.17846 21.4993 8.31242C21.5031 8.44638 21.5336 8.57829 21.5891 8.70061C21.6446 8.82293 21.724 8.93327 21.8227 9.02533C22.0228 9.21069 22.2891 9.31034 22.5634 9.30246C22.8377 9.29459 23.0977 9.17983 23.2865 8.9833C23.4744 8.78626 23.5754 8.5238 23.5675 8.2534C23.5596 7.983 23.4434 7.72671 23.2444 7.54066ZM11.5486 10.0774C11.464 9.99953 11.3516 9.95771 11.2359 9.96107C11.1202 9.96443 11.0105 10.0127 10.9307 10.0954C10.8911 10.1364 10.8601 10.1847 10.8395 10.2376C10.8189 10.2904 10.8091 10.3468 10.8107 10.4034C10.8122 10.46 10.8251 10.5158 10.8486 10.5674C10.8721 10.6191 10.9057 10.6657 10.9474 10.7046C10.9889 10.7438 11.0379 10.7744 11.0915 10.7948C11.1452 10.8152 11.2023 10.8249 11.2598 10.8233C11.3172 10.8217 11.3738 10.8089 11.4261 10.7856C11.4785 10.7623 11.5257 10.729 11.5649 10.6876C11.6446 10.6045 11.6877 10.4936 11.6846 10.3792C11.6816 10.2648 11.6327 10.1563 11.5486 10.0774ZM26.7693 20.7204C26.6625 20.8323 26.6051 20.9813 26.6096 21.1349C26.6141 21.2885 26.6801 21.4341 26.7932 21.5397C26.9078 21.6402 27.0575 21.6927 27.2107 21.686C27.3639 21.6793 27.5083 21.6139 27.6134 21.5037C27.7184 21.3936 27.7758 21.2473 27.7732 21.0961C27.7707 20.9449 27.7085 20.8006 27.5998 20.6939C27.4859 20.5892 27.3346 20.5332 27.179 20.5382C27.0234 20.5431 26.8761 20.6086 26.7693 20.7204ZM27.5208 17.7322C27.3904 17.8706 27.3208 18.0541 27.3269 18.243C27.3331 18.4318 27.4147 18.6106 27.5538 18.7404C27.6229 18.8049 27.7043 18.8554 27.7933 18.8888C27.8822 18.9223 27.977 18.9381 28.0721 18.9353C28.1673 18.9325 28.2609 18.9111 28.3477 18.8725C28.4345 18.8338 28.5126 18.7787 28.5777 18.7101C28.6432 18.642 28.6943 18.5617 28.7281 18.474C28.762 18.3863 28.7779 18.2928 28.7749 18.199C28.7719 18.1051 28.7501 18.0128 28.7107 17.9274C28.6714 17.8419 28.6153 17.7649 28.5456 17.701C28.4052 17.5717 28.2187 17.5024 28.0267 17.5082C27.8347 17.5141 27.6529 17.5946 27.5208 17.7322ZM27.2901 14.5853C27.2071 14.6719 27.1424 14.7739 27.0995 14.8853C27.0566 14.9967 27.0364 15.1153 27.0401 15.2345C27.0437 15.3536 27.0712 15.4708 27.121 15.5794C27.1707 15.688 27.2417 15.7859 27.3298 15.8674C27.4177 15.9491 27.521 16.013 27.6339 16.0553C27.7469 16.0976 27.8671 16.1175 27.9878 16.1138C28.1086 16.1102 28.2274 16.0831 28.3375 16.034C28.4476 15.985 28.5468 15.9151 28.6294 15.8282C28.7914 15.6521 28.8768 15.4203 28.8672 15.1827C28.8577 14.9451 28.754 14.7207 28.5785 14.5578C28.4029 14.3949 28.1695 14.3065 27.9286 14.3116C27.6876 14.3168 27.4583 14.415 27.2901 14.5853ZM26.1767 11.6688C26.0363 11.8159 25.9433 12.0008 25.9095 12.2C25.8757 12.3992 25.9025 12.6039 25.9866 12.7881C26.0707 12.9722 26.2084 13.1277 26.382 13.2347C26.5557 13.3417 26.7577 13.3954 26.9624 13.3891C27.167 13.3829 27.3652 13.3168 27.5318 13.1994C27.6984 13.0819 27.826 12.9184 27.8983 12.7294C27.9706 12.5404 27.9845 12.3345 27.9382 12.1377C27.8919 11.9409 27.7874 11.7622 27.6381 11.624C27.2255 11.2377 26.5697 11.2599 26.1767 11.6688ZM25.1538 23.3124C25.0748 23.3961 25.0325 23.5071 25.0361 23.6214C25.0396 23.7356 25.0888 23.8439 25.1729 23.9225C25.2148 23.9612 25.264 23.9913 25.3177 24.0111C25.3714 24.031 25.4286 24.0401 25.4859 24.0381C25.5432 24.036 25.5995 24.0228 25.6516 23.9991C25.7037 23.9755 25.7506 23.9419 25.7895 23.9003C25.8292 23.8597 25.8604 23.8117 25.881 23.759C25.9016 23.7064 25.9114 23.6502 25.9096 23.5937C25.9079 23.5373 25.8947 23.4818 25.8709 23.4305C25.847 23.3792 25.813 23.3331 25.7708 23.2949C25.7294 23.2557 25.6804 23.2249 25.6268 23.2045C25.5732 23.1841 25.516 23.1744 25.4586 23.1761C25.4011 23.1777 25.3446 23.1906 25.2923 23.214C25.24 23.2374 25.1929 23.2709 25.1538 23.3124ZM12.5285 24.8207C12.7416 24.5935 12.8553 24.2925 12.8447 23.9831C12.834 23.6737 12.7 23.381 12.4718 23.1686C12.2435 22.9562 11.9395 22.8412 11.6258 22.8488C11.3121 22.8564 11.0141 22.9858 10.7967 23.209C10.591 23.4374 10.4836 23.7359 10.4972 24.0411C10.5109 24.3463 10.6445 24.6343 10.8698 24.844C11.095 25.0536 11.3942 25.1684 11.7039 25.1641C12.0136 25.1597 12.3093 25.0366 12.5285 24.8207ZM9.95325 13.2786C10.0061 13.2233 10.0475 13.1583 10.0749 13.0872C10.1023 13.0161 10.1153 12.9404 10.113 12.8644C10.1108 12.7884 10.0934 12.7135 10.0618 12.6442C10.0303 12.5748 9.98515 12.5122 9.92908 12.46C9.87301 12.4079 9.80707 12.3671 9.73502 12.34C9.66298 12.313 9.58624 12.3002 9.50919 12.3024C9.43213 12.3046 9.35628 12.3218 9.28595 12.3529C9.21563 12.3841 9.1522 12.4286 9.09931 12.4839C8.87433 12.7153 8.88774 13.0803 9.12563 13.3013C9.35874 13.5185 9.72923 13.5096 9.95325 13.2786ZM9.19887 16.2683C9.32995 16.1299 9.40037 15.9461 9.39482 15.7567C9.38926 15.5674 9.30817 15.3879 9.16919 15.2572C9.02852 15.1329 8.84422 15.0677 8.65553 15.0755C8.46684 15.0832 8.28868 15.1633 8.15897 15.2988C8.02926 15.4342 7.95825 15.6142 7.96107 15.8005C7.96388 15.9868 8.0403 16.1646 8.17405 16.2961C8.31401 16.4259 8.5003 16.4957 8.69228 16.4905C8.88426 16.4853 9.06636 16.4054 9.19887 16.2683ZM9.43102 19.4137C9.59864 19.2381 9.68871 19.004 9.68144 18.7629C9.67417 18.5218 9.57016 18.2934 9.39225 18.1279C9.21424 17.9631 8.97721 17.8746 8.73319 17.8821C8.48917 17.8895 8.25811 17.9922 8.09076 18.1676C7.92409 18.3432 7.83474 18.5768 7.84228 18.8173C7.84981 19.0577 7.95362 19.2854 8.13097 19.4506C8.50241 19.7967 9.08351 19.7783 9.43102 19.4137ZM10.5425 22.3311C10.7304 22.134 10.8315 21.8714 10.8235 21.6009C10.8155 21.3304 10.6992 21.074 10.4999 20.888C10.4012 20.7961 10.2851 20.7243 10.1582 20.6768C10.0314 20.6292 9.89622 20.6069 9.76057 20.611C9.62492 20.6151 9.49143 20.6456 9.36777 20.7008C9.2441 20.756 9.1327 20.8347 9.03995 20.9324C8.94634 21.0296 8.87308 21.144 8.82438 21.2692C8.77567 21.3943 8.75248 21.5278 8.75613 21.6618C8.75977 21.7958 8.79019 21.9278 8.84563 22.0502C8.90107 22.1726 8.98044 22.283 9.0792 22.3751C9.27981 22.5593 9.54602 22.6581 9.82 22.6499C10.094 22.6416 10.3536 22.5271 10.5425 22.3311ZM22.6528 25.8747C22.7088 25.9269 22.7747 25.9678 22.8467 25.9948C22.9188 26.0218 22.9955 26.0345 23.0726 26.0322C23.1496 26.0299 23.2254 26.0126 23.2956 25.9812C23.3659 25.9499 23.4291 25.9052 23.4818 25.8497C23.5347 25.7945 23.5759 25.7297 23.6033 25.6587C23.6306 25.5878 23.6435 25.5123 23.6411 25.4365C23.6388 25.3606 23.6212 25.286 23.5895 25.2169C23.5578 25.1477 23.5126 25.0855 23.4564 25.0337C23.4006 24.9814 23.3349 24.9406 23.263 24.9135C23.1911 24.8864 23.1146 24.8736 23.0377 24.8758C22.9607 24.878 22.885 24.8951 22.8149 24.9263C22.7447 24.9574 22.6815 25.0019 22.6288 25.0573C22.5222 25.1688 22.4648 25.3176 22.4693 25.4709C22.4738 25.6241 22.5398 25.7694 22.6528 25.8747ZM19.6807 26.9887C19.9727 27.2602 20.4303 27.2422 20.7046 26.957C20.7699 26.889 20.821 26.809 20.8549 26.7215C20.8888 26.634 20.9048 26.5407 20.902 26.4471C20.8993 26.3534 20.8778 26.2613 20.8388 26.1758C20.7998 26.0904 20.7441 26.0134 20.6749 25.9493C20.5345 25.8194 20.3476 25.7498 20.1552 25.7556C19.9629 25.7615 19.7807 25.8423 19.6486 25.9805C19.518 26.1187 19.4481 26.3022 19.4541 26.4911C19.4601 26.6799 19.5416 26.8588 19.6807 26.9887ZM16.4909 27.2158C16.8642 27.5629 17.4425 27.5459 17.7905 27.1813C17.8736 27.0949 17.9386 26.9931 17.9818 26.8818C18.025 26.7706 18.0455 26.652 18.0421 26.5328C18.0387 26.4137 18.0116 26.2964 17.9621 26.1877C17.9127 26.079 17.842 25.981 17.7541 25.8992C17.5762 25.7342 17.3392 25.6453 17.0951 25.6521C16.851 25.6588 16.6195 25.7605 16.4511 25.9351C16.3684 26.0217 16.3037 26.1236 16.2609 26.2348C16.2181 26.3461 16.198 26.4646 16.2016 26.5836C16.2053 26.7026 16.2328 26.8196 16.2824 26.9281C16.332 27.0366 16.4029 27.1344 16.4909 27.2158ZM13.481 26.4584C13.5796 26.5503 13.6956 26.6222 13.8224 26.6699C13.9492 26.7176 14.0843 26.7401 14.2199 26.7361C14.3556 26.7322 14.4891 26.7018 14.6128 26.6469C14.7365 26.5919 14.848 26.5134 14.941 26.4159C15.034 26.3183 15.1066 26.2036 15.1546 26.0783C15.2027 25.9531 15.2253 25.8197 15.2211 25.6858C15.2169 25.5519 15.1861 25.4202 15.1303 25.2981C15.0745 25.176 14.9949 25.0659 14.896 24.9742C14.7971 24.8824 14.6808 24.8108 14.5538 24.7634C14.4269 24.7159 14.2917 24.6936 14.156 24.6978C14.0203 24.7019 13.8867 24.7323 13.7629 24.7874C13.6392 24.8424 13.5276 24.921 13.4346 25.0186C13.3416 25.116 13.2691 25.2306 13.2211 25.3558C13.1731 25.4809 13.1506 25.6142 13.1549 25.748C13.1593 25.8817 13.1903 26.0133 13.2462 26.1352C13.3022 26.2571 13.382 26.3669 13.481 26.4584Z" fill="white"/>
<g id="Group">
<path id="Vector_2" d="M21.3144 10.3264C21.2801 10.4412 21.2231 10.5481 21.1467 10.6411C21.0704 10.7341 20.9762 10.8113 20.8696 10.8683C20.7629 10.9253 20.6459 10.9609 20.5253 10.9732C20.4047 10.9855 20.2828 10.9742 20.1666 10.9399C20.0495 10.9065 19.9404 10.8506 19.8454 10.7755C19.7504 10.7003 19.6714 10.6073 19.6131 10.5018C19.5547 10.3963 19.5182 10.2805 19.5054 10.161C19.4927 10.0415 19.5041 9.9207 19.539 9.80558C19.609 9.57332 19.7697 9.37801 19.9857 9.26262C20.0926 9.20548 20.2099 9.16969 20.3309 9.15727C20.4519 9.14486 20.5741 9.15607 20.6907 9.19028C20.8073 9.22448 20.9159 9.28099 21.0103 9.3566C21.1047 9.43221 21.1832 9.52542 21.2411 9.63092C21.299 9.73643 21.3353 9.85215 21.3479 9.97149C21.3604 10.0908 21.3491 10.2114 21.3144 10.3264ZM12.4385 12.4831C12.3217 12.451 12.1969 12.4653 12.0906 12.5228C11.9844 12.5803 11.9051 12.6766 11.8698 12.791C11.8406 12.9042 11.8571 13.0242 11.9158 13.1257C11.9745 13.2272 12.0708 13.3022 12.1845 13.335C12.2981 13.3678 12.4203 13.3558 12.5252 13.3016C12.63 13.2473 12.7095 13.155 12.7467 13.0441C12.8224 12.8066 12.6788 12.5567 12.4385 12.4831ZM14.0444 10.7406C13.9734 10.7199 13.8988 10.7133 13.8252 10.7212C13.7515 10.729 13.6802 10.7512 13.6152 10.7863C13.5503 10.8215 13.493 10.8689 13.4467 10.926C13.4005 10.9831 13.3661 11.0486 13.3456 11.1188C13.3244 11.189 13.3174 11.2625 13.3252 11.3353C13.3329 11.4081 13.3552 11.4787 13.3907 11.5429C13.4262 11.6072 13.4743 11.6639 13.5321 11.7097C13.5899 11.7556 13.6563 11.7897 13.7275 11.8102C13.8713 11.8512 14.0257 11.8345 14.157 11.7638C14.2884 11.693 14.3861 11.5739 14.4288 11.4324C14.4701 11.2904 14.4528 11.138 14.3808 11.0085C14.3089 10.8789 14.188 10.7827 14.0444 10.7406ZM16.1022 9.51233C15.9196 9.46032 15.7236 9.48136 15.5566 9.57089C15.3896 9.66042 15.2651 9.81124 15.21 9.99069C15.1573 10.171 15.1792 10.3646 15.2708 10.5291C15.3623 10.6936 15.5162 10.8156 15.6987 10.8686C15.7889 10.8952 15.8837 10.9039 15.9773 10.8942C16.071 10.8845 16.1618 10.8565 16.2445 10.812C16.3272 10.7675 16.4002 10.7073 16.4591 10.6348C16.5181 10.5623 16.5619 10.479 16.588 10.3897C16.6396 10.2098 16.6176 10.0172 16.5268 9.85314C16.4359 9.68908 16.2835 9.56672 16.1022 9.51233ZM18.3811 9.00941C18.2795 8.97938 18.1728 8.9695 18.0672 8.98034C17.9617 8.99117 17.8593 9.02252 17.7661 9.07256C17.6729 9.12261 17.5906 9.19036 17.5241 9.27192C17.4575 9.35347 17.408 9.44722 17.3783 9.54775C17.3481 9.64793 17.3382 9.75301 17.3493 9.85696C17.3603 9.96092 17.3921 10.0617 17.4428 10.1535C17.4934 10.2453 17.562 10.3263 17.6445 10.3919C17.727 10.4575 17.8218 10.5063 17.9235 10.5356C18.1285 10.5947 18.3488 10.5713 18.5363 10.4706C18.7239 10.37 18.8634 10.2001 18.9244 9.99825C18.955 9.89813 18.9652 9.79303 18.9545 9.689C18.9437 9.58498 18.9121 9.48408 18.8616 9.39215C18.8111 9.30022 18.7427 9.21906 18.6602 9.15337C18.5777 9.08768 18.4829 9.03875 18.3811 9.00941ZM11.4232 14.6402C11.3805 14.6277 11.3357 14.6236 11.2914 14.6283C11.2471 14.6329 11.2042 14.6461 11.1651 14.6672C11.126 14.6882 11.0915 14.7167 11.0636 14.751C11.0357 14.7853 11.0149 14.8246 11.0025 14.8669C10.9894 14.9094 10.985 14.954 10.9894 14.9982C10.9939 15.0424 11.0071 15.0853 11.0283 15.1245C11.0496 15.1636 11.0784 15.1983 11.1133 15.2264C11.1481 15.2546 11.1882 15.2757 11.2313 15.2886C11.4141 15.3405 11.6027 15.2366 11.6559 15.0581C11.6685 15.0156 11.6726 14.971 11.6677 14.927C11.6629 14.8829 11.6492 14.8403 11.6276 14.8014C11.606 14.7626 11.5768 14.7284 11.5417 14.7007C11.5067 14.673 11.4664 14.6525 11.4232 14.6402ZM25.2505 16.6679C25.2333 16.7248 25.2277 16.7844 25.234 16.8434C25.2404 16.9025 25.2585 16.9596 25.2874 17.0117C25.3163 17.0637 25.3554 17.1096 25.4023 17.1467C25.4493 17.1837 25.5033 17.2112 25.5611 17.2275C25.6774 17.2612 25.8025 17.248 25.909 17.1908C26.0154 17.1335 26.0944 17.0369 26.1286 16.9222C26.1628 16.8075 26.1494 16.6841 26.0914 16.5791C26.0334 16.4741 25.9354 16.3961 25.8191 16.3624C25.7027 16.3288 25.5775 16.3421 25.4709 16.3994C25.3643 16.4566 25.2851 16.5532 25.2505 16.6679ZM24.722 14.4131C24.7006 14.4834 24.6936 14.5572 24.7013 14.6303C24.7089 14.7034 24.7312 14.7742 24.7669 14.8387C24.8025 14.9032 24.8507 14.9601 24.9087 15.0061C24.9667 15.0521 25.0334 15.0863 25.105 15.1067C25.4065 15.1946 25.7177 15.0246 25.8057 14.729C25.8938 14.4334 25.7239 14.125 25.4247 14.04C25.3537 14.0189 25.2793 14.0119 25.2055 14.0192C25.1318 14.0266 25.0602 14.0482 24.995 14.0828C24.9297 14.1175 24.872 14.1645 24.8252 14.2211C24.7783 14.2778 24.7433 14.343 24.722 14.4131ZM23.4775 12.3849C23.451 12.4739 23.4426 12.5673 23.4527 12.6596C23.4628 12.7519 23.4913 12.8413 23.5364 12.9228C23.5815 13.0042 23.6425 13.0761 23.7158 13.1343C23.7891 13.1925 23.8733 13.2359 23.9636 13.262C24.0539 13.2881 24.1485 13.2964 24.2421 13.2865C24.3356 13.2765 24.4263 13.2484 24.5088 13.2039C24.5914 13.1594 24.6642 13.0992 24.7232 13.0269C24.7823 12.9546 24.8262 12.8716 24.8527 12.7825C24.8795 12.6935 24.8881 12.6003 24.8781 12.508C24.8681 12.4158 24.8397 12.3264 24.7945 12.2451C24.7493 12.1638 24.6881 12.0921 24.6147 12.0342C24.5412 11.9763 24.4568 11.9334 24.3664 11.9079C24.1844 11.8561 23.9891 11.8771 23.8227 11.9663C23.6563 12.0556 23.5323 12.206 23.4775 12.3849ZM21.7261 10.8095C21.6662 11.012 21.6903 11.2297 21.7932 11.4147C21.896 11.5996 22.0691 11.7367 22.2744 11.7958C22.4796 11.8548 22.7003 11.831 22.8878 11.7296C23.0753 11.6281 23.2142 11.4573 23.2741 11.2548C23.3043 11.1548 23.3142 11.0498 23.3032 10.946C23.2922 10.8421 23.2605 10.7415 23.2099 10.6497C23.1593 10.558 23.0909 10.4771 23.0085 10.4116C22.9261 10.346 22.8314 10.2972 22.7298 10.2679C22.5239 10.2085 22.3025 10.2322 22.1143 10.3338C21.9261 10.4353 21.7865 10.6064 21.7261 10.8095ZM25.0652 18.944C25.0406 19.0294 25.0507 19.121 25.0936 19.1991C25.1364 19.2772 25.2085 19.3356 25.2945 19.3619C25.3376 19.3747 25.3828 19.3789 25.4275 19.3743C25.4722 19.3696 25.5155 19.3563 25.5549 19.335C25.5944 19.3136 25.6291 19.2848 25.6571 19.2501C25.6851 19.2154 25.7059 19.1756 25.7181 19.1329C25.7311 19.0905 25.7355 19.046 25.7309 19.002C25.7263 18.9579 25.7129 18.9152 25.6915 18.8763C25.6701 18.8374 25.6411 18.8031 25.6061 18.7753C25.5712 18.7475 25.531 18.7269 25.4879 18.7145C25.401 18.6905 25.308 18.7011 25.229 18.744C25.1499 18.7869 25.0911 18.8587 25.0652 18.944ZM17.1845 24.197C17.2192 24.0816 17.2304 23.9605 17.2176 23.8407C17.2047 23.7209 17.168 23.6049 17.1096 23.4991C17.0511 23.3934 16.9721 23.3001 16.877 23.2245C16.7819 23.149 16.6727 23.0927 16.5555 23.059C16.4388 23.0251 16.3165 23.0143 16.1955 23.0271C16.0746 23.0399 15.9574 23.0761 15.8506 23.1336C15.7439 23.1912 15.6497 23.2689 15.5734 23.3624C15.4972 23.4559 15.4403 23.5633 15.4062 23.6785C15.3716 23.7939 15.3604 23.9149 15.3733 24.0346C15.3862 24.1543 15.4229 24.2703 15.4813 24.3759C15.5398 24.4816 15.6188 24.5748 15.7138 24.6503C15.8089 24.7257 15.9181 24.7819 16.0352 24.8156C16.5263 24.9559 17.0447 24.6773 17.1845 24.197ZM11.4706 17.3319C11.5051 17.2172 11.492 17.0937 11.4341 16.9886C11.3763 16.8835 11.2786 16.8053 11.1624 16.7713C11.0456 16.7387 10.9205 16.7526 10.814 16.81C10.7075 16.8674 10.628 16.9637 10.5927 17.0783C10.576 17.135 10.5707 17.1945 10.5773 17.2532C10.5839 17.312 10.6021 17.3688 10.6311 17.4206C10.66 17.4724 10.6989 17.518 10.7458 17.5549C10.7926 17.5918 10.8463 17.6192 10.9039 17.6355C10.9613 17.6526 11.0216 17.6583 11.0812 17.6522C11.1409 17.6462 11.1987 17.6285 11.2514 17.6003C11.3041 17.5721 11.3506 17.5338 11.3883 17.4877C11.4259 17.4416 11.4539 17.3887 11.4706 17.3319ZM12 19.5853C12.0211 19.5156 12.0279 19.4425 12.0202 19.3702C12.0124 19.2978 11.9901 19.2277 11.9547 19.164C11.9192 19.1002 11.8713 19.044 11.8137 18.9986C11.7561 18.9532 11.6899 18.9196 11.619 18.8996C11.5481 18.8778 11.4735 18.8701 11.3996 18.8772C11.3257 18.8843 11.2539 18.9059 11.1886 18.9408C11.1233 18.9758 11.0658 19.0232 11.0194 19.0805C10.9731 19.1377 10.9388 19.2036 10.9187 19.2741C10.8769 19.4156 10.8937 19.5676 10.9655 19.6968C11.0374 19.826 11.1583 19.9218 11.3016 19.9631C11.445 20.0043 11.5992 19.9877 11.7301 19.9169C11.8611 19.846 11.9582 19.7268 12 19.5853ZM13.2465 21.6163C13.2989 21.4354 13.277 21.2413 13.1854 21.0762C13.0939 20.9111 12.94 20.7882 12.7573 20.7342C12.5747 20.6823 12.3787 20.7039 12.2122 20.7943C12.0457 20.8847 11.9222 21.0364 11.8689 21.2164C11.842 21.3054 11.8333 21.3987 11.8431 21.4911C11.853 21.5835 11.8813 21.673 11.9264 21.7545C11.9714 21.8361 12.0324 21.908 12.1057 21.9662C12.1791 22.0245 12.2634 22.0678 12.3538 22.0937C12.4441 22.1204 12.539 22.1292 12.6328 22.1197C12.7267 22.1101 12.8177 22.0823 12.9006 22.038C12.9836 21.9936 13.0568 21.9335 13.1162 21.8612C13.1755 21.7888 13.2198 21.7056 13.2465 21.6163ZM14.9979 23.194C15.0573 22.9911 15.0328 22.7732 14.9297 22.588C14.8267 22.4029 14.6534 22.2655 14.4479 22.2061C14.3464 22.1766 14.2398 22.1672 14.1346 22.1785C14.0293 22.1897 13.9273 22.2215 13.8345 22.2719C13.7418 22.3223 13.6601 22.3904 13.5941 22.4721C13.5282 22.5539 13.4793 22.6477 13.4504 22.7482C13.4205 22.8482 13.4109 22.953 13.4222 23.0566C13.4334 23.1602 13.4653 23.2607 13.5159 23.3521C13.5666 23.4436 13.635 23.5243 13.7173 23.5896C13.7996 23.6549 13.8942 23.7036 13.9956 23.7328C14.2009 23.7916 14.4215 23.768 14.6092 23.6671C14.797 23.5661 14.9367 23.3961 14.9979 23.194ZM24.2812 21.5153C24.3979 21.5494 24.5236 21.5365 24.6307 21.4793C24.7377 21.4221 24.8174 21.3253 24.8522 21.2102C24.8856 21.0953 24.8718 20.972 24.8139 20.8669C24.756 20.7619 24.6585 20.6835 24.5425 20.6487C24.4261 20.6159 24.3012 20.6295 24.1948 20.6868C24.0885 20.7441 24.0093 20.8403 23.9744 20.9547C23.9402 21.0692 23.9533 21.1923 24.0108 21.2973C24.0683 21.4023 24.1654 21.4806 24.2812 21.5153ZM22.6781 23.2601C22.821 23.3017 22.9748 23.2856 23.1056 23.2154C23.2365 23.1452 23.3338 23.0266 23.376 22.8857C23.3977 22.8156 23.4051 22.742 23.3978 22.6691C23.3905 22.5962 23.3686 22.5254 23.3333 22.4609C23.2981 22.3964 23.2503 22.3394 23.1927 22.2933C23.135 22.2471 23.0686 22.2127 22.9974 22.192C22.8533 22.1503 22.6984 22.1665 22.5664 22.2371C22.4344 22.3077 22.336 22.4269 22.2928 22.5688C22.2525 22.7109 22.2703 22.8629 22.3423 22.9921C22.4144 23.1214 22.5349 23.2176 22.6781 23.2601ZM20.6203 24.4889C20.7108 24.5155 20.8058 24.5241 20.8997 24.5144C20.9937 24.5046 21.0847 24.4766 21.1676 24.4319C21.2505 24.3873 21.3236 24.3269 21.3827 24.2543C21.4419 24.1816 21.4858 24.0981 21.5121 24.0086C21.5385 23.9196 21.5468 23.8264 21.5367 23.7342C21.5265 23.642 21.4981 23.5527 21.4529 23.4714C21.4077 23.3901 21.3467 23.3184 21.2735 23.2603C21.2002 23.2023 21.116 23.159 21.0258 23.1331C20.9355 23.1068 20.8409 23.0984 20.7474 23.1082C20.6538 23.118 20.5631 23.1459 20.4805 23.1902C20.3979 23.2346 20.3249 23.2946 20.2658 23.3668C20.2067 23.439 20.1625 23.522 20.1359 23.611C20.1093 23.7 20.1007 23.7933 20.1107 23.8856C20.1206 23.9779 20.1489 24.0674 20.1938 24.1489C20.2388 24.2304 20.2996 24.3024 20.3728 24.3607C20.446 24.4191 20.5301 24.4626 20.6203 24.4889ZM18.3433 24.9899C18.4445 25.0203 18.5509 25.0307 18.6562 25.0202C18.7615 25.0098 18.8636 24.9788 18.9567 24.929C19.0497 24.8793 19.1318 24.8118 19.1982 24.7305C19.2645 24.6491 19.3138 24.5556 19.3433 24.4553C19.3731 24.355 19.3826 24.2499 19.3712 24.146C19.3599 24.042 19.3279 23.9413 19.2771 23.8496C19.1745 23.6643 19.0015 23.5269 18.7961 23.4674C18.5908 23.408 18.3699 23.4315 18.1821 23.5327C17.9943 23.6339 17.855 23.8046 17.7948 24.0072C17.736 24.2093 17.7607 24.4261 17.8635 24.6102C17.9663 24.7944 18.1388 24.9309 18.3433 24.9899Z" fill="white"/>
</g>
<g id="Group_2">
<path id="Vector_3" d="M16.4569 12.0229C16.6436 12.3662 16.5167 12.7968 16.1673 12.9829C15.9987 13.0721 15.8012 13.0917 15.618 13.0373C15.4348 12.983 15.281 12.8591 15.1903 12.6929C14.9989 12.3501 15.131 11.9185 15.4795 11.7334C15.5628 11.6887 15.6543 11.6608 15.7487 11.6512C15.843 11.6415 15.9384 11.6504 16.0293 11.6774C16.1201 11.7043 16.2047 11.7486 16.2781 11.8079C16.3515 11.8672 16.4122 11.9403 16.4569 12.0229ZM12.9009 17.5771C12.8027 17.631 12.73 17.7207 12.6983 17.8269C12.6666 17.9332 12.6785 18.0475 12.7314 18.1452C12.7576 18.1936 12.7933 18.2363 12.8364 18.2709C12.8795 18.3054 12.9292 18.3311 12.9826 18.3464C13.0359 18.3617 13.0918 18.3664 13.147 18.36C13.2022 18.3537 13.2556 18.3365 13.3039 18.3095C13.3534 18.2844 13.3973 18.2497 13.433 18.2074C13.4686 18.1652 13.4953 18.1163 13.5113 18.0637C13.5274 18.0111 13.5326 17.9558 13.5266 17.9012C13.5205 17.8466 13.5034 17.7937 13.4762 17.7457C13.4222 17.6485 13.3314 17.5762 13.2237 17.5447C13.116 17.5131 12.9999 17.5248 12.9009 17.5771ZM12.8291 15.8696C12.7152 15.9312 12.6306 16.0346 12.5935 16.1574C12.5565 16.2802 12.5701 16.4125 12.6314 16.5255C12.764 16.7654 13.0617 16.8518 13.3025 16.7252C13.5404 16.5968 13.6313 16.2969 13.5026 16.0641C13.4716 16.0074 13.4295 15.9574 13.3788 15.9168C13.3281 15.8763 13.2697 15.8461 13.207 15.828C13.1444 15.8099 13.0787 15.8042 13.0138 15.8114C12.9489 15.8185 12.8861 15.8383 12.8291 15.8696ZM13.2781 14.2262C13.1468 14.2968 13.0489 14.4154 13.0055 14.5564C12.9621 14.6975 12.9766 14.8498 13.0459 14.9804C13.1967 15.2491 13.5389 15.353 13.8118 15.2061C13.8773 15.1716 13.9353 15.1246 13.9824 15.0679C14.0296 15.0112 14.0649 14.9459 14.0863 14.8757C14.1078 14.8055 14.115 14.7318 14.1076 14.6588C14.1002 14.5859 14.0782 14.5151 14.043 14.4505C13.9709 14.3216 13.8502 14.2258 13.7071 14.1838C13.564 14.1418 13.4099 14.1571 13.2781 14.2262ZM14.1942 12.8049C14.1201 12.8436 14.0544 12.8966 14.0012 12.9606C13.9479 13.0247 13.9081 13.0985 13.884 13.1778C13.8599 13.2572 13.852 13.3405 13.8608 13.4228C13.8696 13.5052 13.8949 13.585 13.9353 13.6577C14.1028 13.9594 14.4829 14.0742 14.7911 13.9094C14.8651 13.8711 14.9306 13.8187 14.9839 13.7553C15.0371 13.6918 15.0771 13.6186 15.1015 13.5398C15.1258 13.461 15.1341 13.3782 15.1258 13.2962C15.1174 13.2142 15.0927 13.1347 15.053 13.0622C15.0139 12.9895 14.9607 12.9251 14.8963 12.8727C14.832 12.8204 14.7577 12.7811 14.6779 12.7572C14.5981 12.7333 14.5143 12.7251 14.4312 12.7333C14.3482 12.7415 14.2677 12.7658 14.1942 12.8049ZM13.493 19.194C13.4519 19.2158 13.4155 19.2455 13.3861 19.2812C13.3566 19.3169 13.3346 19.358 13.3213 19.4022C13.308 19.4463 13.3037 19.4926 13.3086 19.5384C13.3135 19.5842 13.3275 19.6286 13.3499 19.6691C13.3954 19.7499 13.4711 19.81 13.5609 19.8364C13.6507 19.8629 13.7474 19.8537 13.8304 19.8107C13.9123 19.7653 13.9728 19.69 13.9991 19.601C14.0253 19.512 14.0151 19.4164 13.9707 19.3347C13.9257 19.2542 13.8504 19.1943 13.761 19.168C13.6717 19.1417 13.5754 19.151 13.493 19.194ZM21.6753 13.3791C21.73 13.4763 21.8209 13.5487 21.9288 13.5809C22.0366 13.613 22.153 13.6025 22.2531 13.5514C22.3517 13.4975 22.4249 13.4075 22.4571 13.3008C22.4892 13.1942 22.4777 13.0793 22.4249 12.981C22.3987 12.9326 22.363 12.8898 22.3199 12.8551C22.2768 12.8204 22.2271 12.7945 22.1738 12.7788C22.1205 12.7631 22.0645 12.758 22.0092 12.7638C21.9539 12.7696 21.9003 12.7861 21.8515 12.8124C21.8022 12.8382 21.7585 12.8733 21.7229 12.9157C21.6874 12.9582 21.6607 13.0071 21.6443 13.0597C21.628 13.1123 21.6223 13.1676 21.6276 13.2224C21.6329 13.2772 21.6491 13.3305 21.6753 13.3791ZM20.2379 12.4767C20.3676 12.7137 20.673 12.8001 20.9056 12.6712C21.1512 12.5428 21.2388 12.2481 21.1076 12.012C21.0459 11.8987 20.9413 11.814 20.8165 11.7765C20.6918 11.739 20.5571 11.7517 20.4418 11.8118C20.3262 11.8741 20.24 11.9787 20.2019 12.103C20.1638 12.2274 20.1767 12.3616 20.2379 12.4767ZM18.5769 12.0375C18.6115 12.1017 18.6587 12.1584 18.7158 12.2044C18.7728 12.2505 18.8386 12.2849 18.9092 12.3057C18.9798 12.3264 19.0539 12.3332 19.1272 12.3255C19.2005 12.3178 19.2715 12.2958 19.3361 12.2609C19.4017 12.2265 19.4597 12.1797 19.5069 12.1232C19.5541 12.0667 19.5895 12.0015 19.6111 11.9314C19.6326 11.8613 19.64 11.7877 19.6326 11.7148C19.6253 11.642 19.6034 11.5712 19.5682 11.5067C19.5333 11.4422 19.4858 11.3853 19.4283 11.3391C19.3709 11.2929 19.3047 11.2585 19.2337 11.2378C19.1626 11.2171 19.0881 11.2106 19.0145 11.2185C18.9408 11.2265 18.8696 11.2489 18.8048 11.2843C18.7396 11.3189 18.682 11.3659 18.6352 11.4225C18.5885 11.4791 18.5535 11.5443 18.5323 11.6142C18.5112 11.6842 18.5042 11.7576 18.5119 11.8302C18.5195 11.9029 18.5416 11.9733 18.5769 12.0375ZM16.8427 12.105C16.8821 12.1778 16.9357 12.2423 17.0003 12.2946C17.065 12.347 17.1395 12.3863 17.2196 12.4102C17.2996 12.4342 17.3837 12.4423 17.4669 12.4342C17.5502 12.426 17.631 12.4018 17.7048 12.3629C17.8524 12.2824 17.962 12.1479 18.0098 11.9884C18.0577 11.8289 18.0399 11.6572 17.9604 11.5105C17.8777 11.3695 17.7425 11.2658 17.5836 11.2214C17.4247 11.1771 17.2545 11.1955 17.1092 11.2728C16.9638 11.3501 16.8547 11.4803 16.8049 11.6356C16.7552 11.791 16.7687 11.9593 16.8427 12.105ZM22.7552 14.6574C22.8461 14.8269 23.0615 14.8883 23.2281 14.7976C23.2691 14.7766 23.3054 14.7478 23.3349 14.7127C23.3645 14.6777 23.3866 14.6372 23.4 14.5936C23.4134 14.55 23.4179 14.5042 23.4131 14.4588C23.4083 14.4135 23.3944 14.3696 23.3722 14.3297C23.328 14.2477 23.2529 14.1863 23.1632 14.1585C23.0734 14.1308 22.9762 14.139 22.8926 14.1814C22.7284 14.2754 22.6599 14.4916 22.7552 14.6574ZM21.5346 21.3006C21.4901 21.2176 21.4294 21.1441 21.3559 21.0846C21.2823 21.025 21.1975 20.9804 21.1063 20.9535C21.0152 20.9266 20.9195 20.9179 20.8249 20.9279C20.7302 20.9378 20.6386 20.9663 20.5552 21.0116C20.4719 21.0555 20.3982 21.1153 20.3385 21.1875C20.2788 21.2597 20.2342 21.3429 20.2073 21.4323C20.1805 21.5217 20.1719 21.6154 20.1821 21.7081C20.1922 21.8007 20.221 21.8905 20.2666 21.9721C20.4562 22.3159 20.8937 22.4415 21.244 22.2602C21.592 22.0703 21.7217 21.6373 21.5346 21.3006ZM15.0458 20.6121C14.9918 20.5157 14.9016 20.4441 14.7946 20.4127C14.6876 20.3813 14.5724 20.3925 14.4738 20.444C14.4249 20.4698 14.3817 20.5049 14.3465 20.5472C14.3114 20.5896 14.2851 20.6383 14.2692 20.6907C14.2532 20.7431 14.2479 20.7981 14.2535 20.8525C14.2591 20.9069 14.2756 20.9597 14.3019 21.0078C14.3277 21.0565 14.3632 21.0995 14.4061 21.1344C14.4491 21.1692 14.4987 21.1952 14.5521 21.2108C14.6054 21.2264 14.6614 21.2313 14.7167 21.2251C14.772 21.219 14.8255 21.2019 14.8739 21.175C14.9227 21.1492 14.9659 21.1142 15.001 21.0719C15.036 21.0297 15.0623 20.981 15.0783 20.9287C15.0942 20.8764 15.0996 20.8216 15.094 20.7672C15.0884 20.7129 15.072 20.6602 15.0458 20.6121ZM16.4851 21.515C16.4226 21.402 16.3172 21.318 16.1921 21.2815C16.0669 21.2449 15.9322 21.2588 15.8174 21.32C15.7598 21.3497 15.7089 21.3906 15.6676 21.4401C15.6263 21.4895 15.5954 21.5467 15.5768 21.6081C15.5582 21.6695 15.5523 21.734 15.5593 21.7977C15.5663 21.8615 15.5862 21.9231 15.6178 21.9792C15.7422 22.2167 16.0443 22.3074 16.2836 22.1799C16.3987 22.1171 16.4843 22.0123 16.5219 21.888C16.5596 21.7637 16.5464 21.6298 16.4851 21.515ZM18.1499 21.9542C18.0049 21.6845 17.6588 21.5887 17.3812 21.7284C17.2503 21.7995 17.153 21.9186 17.1103 22.0599C17.0677 22.2012 17.0831 22.3534 17.1534 22.4835C17.3037 22.756 17.6459 22.8566 17.9197 22.7111C17.9857 22.6768 18.0441 22.6299 18.0915 22.5731C18.1389 22.5163 18.1743 22.4507 18.1957 22.3803C18.2172 22.3098 18.2242 22.2358 18.2163 22.1627C18.2084 22.0895 18.1859 22.0186 18.1499 21.9542ZM19.8818 21.8857C19.8011 21.7395 19.6652 21.6308 19.5036 21.5832C19.342 21.5356 19.1678 21.553 19.0192 21.6316C18.709 21.7936 18.6013 22.1728 18.7698 22.4812C18.8084 22.5538 18.8614 22.6181 18.9256 22.6702C18.9898 22.7223 19.0639 22.7612 19.1436 22.7846C19.2233 22.8079 19.3069 22.8153 19.3896 22.8063C19.4722 22.7972 19.5521 22.7719 19.6247 22.7319C19.9358 22.5714 20.0464 22.1884 19.8818 21.8857ZM23.8164 16.4202C24.0246 16.3021 24.1041 16.0471 23.9954 15.8474C23.969 15.7992 23.9332 15.7567 23.8901 15.7222C23.847 15.6877 23.7974 15.6619 23.7442 15.6462C23.691 15.6306 23.6352 15.6255 23.58 15.6312C23.5248 15.6368 23.4713 15.6532 23.4224 15.6793C23.3728 15.7048 23.3288 15.7399 23.2931 15.7824C23.2574 15.825 23.2307 15.8742 23.2146 15.9271C23.1984 15.9799 23.1932 16.0355 23.1991 16.0904C23.2051 16.1453 23.2221 16.1985 23.2492 16.2469C23.3019 16.3433 23.3909 16.4154 23.4969 16.4478C23.603 16.4802 23.7177 16.4703 23.8164 16.4202ZM23.8958 18.1249C24.1361 17.996 24.2223 17.6999 24.0916 17.4647C24.0611 17.4085 24.0197 17.3588 23.9697 17.3184C23.9196 17.278 23.862 17.2477 23.8001 17.2294C23.7381 17.2111 23.6732 17.205 23.6089 17.2115C23.5445 17.218 23.4822 17.237 23.4253 17.2674C23.3102 17.3299 23.2246 17.4344 23.1866 17.5585C23.1487 17.6826 23.1615 17.8164 23.2224 17.9313C23.3497 18.1641 23.6589 18.25 23.8958 18.1249ZM23.4435 19.7668C23.724 19.6181 23.8217 19.2837 23.6785 19.0103C23.607 18.8804 23.4863 18.7837 23.3427 18.7413C23.1991 18.6989 23.0443 18.7143 22.9122 18.7841C22.7802 18.8551 22.682 18.9745 22.6388 19.1165C22.5956 19.2585 22.6109 19.4116 22.6815 19.5425C22.7531 19.6712 22.8733 19.7669 23.0159 19.8088C23.1585 19.8508 23.3121 19.8357 23.4435 19.7668ZM22.5336 21.1821C22.8418 21.0244 22.9557 20.6376 22.7887 20.3359C22.6192 20.0327 22.2363 19.9151 21.9295 20.0823C21.8561 20.1214 21.7912 20.1744 21.7386 20.2382C21.686 20.302 21.6467 20.3755 21.6228 20.4543C21.599 20.5332 21.5912 20.6159 21.5998 20.6977C21.6084 20.7796 21.6332 20.859 21.6729 20.9313C21.7122 21.0041 21.7657 21.0684 21.8305 21.1205C21.8952 21.1726 21.9698 21.2114 22.0499 21.2348C22.1301 21.2581 22.2141 21.2655 22.2971 21.2564C22.3802 21.2474 22.4605 21.2221 22.5336 21.1821Z" fill="white"/>
</g>
<g id="Group_3">
<path id="Vector_4" d="M34.8492 18.8204C34.3597 18.8198 33.8905 18.6274 33.5447 18.2856C33.199 17.9438 33.005 17.4805 33.0054 16.9976C33.005 16.7585 33.0525 16.5216 33.1452 16.3006C33.2379 16.0796 33.3739 15.8789 33.5454 15.7099C33.717 15.5409 33.9207 15.4071 34.1448 15.316C34.369 15.2249 34.6091 15.1784 34.8516 15.1791C35.094 15.1787 35.3341 15.2255 35.5582 15.3168C35.7822 15.4081 35.9858 15.5422 36.1572 15.7114C36.3286 15.8805 36.4644 16.0813 36.557 16.3024C36.6495 16.5235 36.6969 16.7604 36.6964 16.9995C36.6961 17.4826 36.5014 17.9458 36.155 18.2873C35.8086 18.6288 35.3389 18.8205 34.8492 18.8204ZM27.6031 3.11619C27.6313 2.98721 27.6333 2.85402 27.6091 2.72427C27.5848 2.59452 27.5349 2.47077 27.462 2.36013C27.3891 2.2495 27.2948 2.15417 27.1845 2.07962C27.0741 2.00507 26.95 1.95277 26.8191 1.92572C26.6884 1.89766 26.5533 1.89536 26.4217 1.91898C26.2901 1.94259 26.1645 1.99164 26.0522 2.06331C25.9399 2.13497 25.843 2.22784 25.7672 2.33657C25.6914 2.4453 25.6381 2.56775 25.6104 2.69686C25.5541 2.95755 25.605 3.22965 25.752 3.45331C25.899 3.67696 26.13 3.83385 26.3942 3.88946C26.6585 3.94507 26.9343 3.89484 27.161 3.74982C27.3877 3.60481 27.5468 3.37688 27.6031 3.11619ZM31.24 5.68508C31.2656 5.52727 31.2594 5.36602 31.2217 5.21058C31.184 5.05515 31.1156 4.90857 31.0204 4.77926C30.9252 4.64994 30.8051 4.54042 30.6669 4.45698C30.5287 4.37353 30.3752 4.3178 30.2152 4.29297C29.8954 4.25026 29.5714 4.33271 29.3125 4.52268C29.0536 4.71265 28.8803 4.99506 28.8298 5.30946C28.7792 5.62387 28.8554 5.9453 29.0421 6.20498C29.2287 6.46466 29.511 6.64196 29.8284 6.69894C30.1518 6.7487 30.482 6.66991 30.7467 6.47985C31.0113 6.2898 31.1887 6.00399 31.24 5.68508ZM35.9874 12.8747C35.9994 12.6552 35.9673 12.4356 35.8931 12.2284C35.8188 12.0212 35.7038 11.8305 35.5547 11.6672C35.4056 11.504 35.2253 11.3713 35.0242 11.2769C34.823 11.1825 34.605 11.1282 34.3825 11.1171C34.16 11.105 33.9372 11.1363 33.727 11.2094C33.5169 11.2825 33.3234 11.3958 33.1577 11.5428C32.992 11.6898 32.8574 11.8677 32.7616 12.0662C32.6658 12.2647 32.6107 12.4799 32.5994 12.6995C32.5857 12.9201 32.6164 13.1412 32.6898 13.3501C32.7632 13.5589 32.8777 13.7513 33.0269 13.9163C33.1761 14.0812 33.3569 14.2153 33.5589 14.3109C33.7609 14.4065 33.9801 14.4617 34.2039 14.4733C34.4276 14.4848 34.6515 14.4526 34.8625 14.3783C35.0735 14.3041 35.2675 14.1893 35.4334 14.0407C35.5992 13.8921 35.7336 13.7125 35.8286 13.5124C35.9237 13.3122 35.9777 13.0955 35.9874 12.8747ZM19.1015 0.730056C19.1015 0.324417 18.7689 0 18.3591 0C18.1673 0.00680403 17.9857 0.0867489 17.8525 0.223006C17.7192 0.359263 17.6448 0.541203 17.6448 0.730528C17.6448 0.919852 17.7192 1.10179 17.8525 1.23805C17.9857 1.37431 18.1673 1.45425 18.3591 1.46106C18.7689 1.46106 19.1015 1.13475 19.1015 0.730056ZM26.3954 30.1098C26.2645 30.1373 26.1403 30.19 26.0299 30.2648C25.9196 30.3396 25.8253 30.4351 25.7524 30.5459C25.6051 30.7697 25.554 31.042 25.6102 31.3029C25.6664 31.5638 25.8254 31.7921 26.0522 31.9373C26.279 32.0826 26.555 32.1331 26.8195 32.0776C27.084 32.0221 27.3154 31.8652 27.4626 31.6415C27.6099 31.4177 27.661 31.1455 27.6048 30.8845C27.5486 30.6236 27.3896 30.3954 27.1628 30.2501C26.936 30.1048 26.6599 30.0544 26.3954 30.1098ZM29.8284 27.302C29.6671 27.3255 29.5121 27.3803 29.3724 27.4632C29.2327 27.5461 29.111 27.6556 29.0144 27.7852C28.9179 27.9147 28.8482 28.0619 28.8097 28.2182C28.7711 28.3745 28.7643 28.5368 28.7896 28.6957C28.815 28.8546 28.872 29.007 28.9574 29.144C29.0428 29.281 29.1549 29.4 29.2872 29.494C29.4195 29.5881 29.5694 29.6553 29.7282 29.6919C29.887 29.7284 30.0515 29.7336 30.2123 29.707C30.5331 29.6541 30.8197 29.4783 31.0098 29.218C31.1999 28.9577 31.2782 28.6339 31.2276 28.317C31.177 28 31.0016 27.7156 30.7396 27.5256C30.4776 27.3355 30.1502 27.2552 29.8284 27.302ZM32.4798 23.6253C32.0742 23.6674 31.7021 23.8667 31.4455 24.1794C31.1888 24.4921 31.0686 24.8925 31.1113 25.2927C31.1539 25.6928 31.356 26.0599 31.6729 26.3131C31.9899 26.5663 32.3958 26.6849 32.8014 26.6428C33.0025 26.6223 33.1974 26.5629 33.3751 26.468C33.5528 26.3731 33.7097 26.2444 33.8369 26.0895C33.9641 25.9346 34.059 25.7564 34.1163 25.5652C34.1735 25.3741 34.1919 25.1736 34.1704 24.9754C34.1276 24.5752 33.9255 24.2082 33.6084 23.955C33.2914 23.7018 32.8854 23.5832 32.4798 23.6253ZM34.202 19.5401C33.7533 19.5642 33.3327 19.7629 33.0323 20.0926C32.7319 20.4222 32.5762 20.8559 32.5994 21.2986C32.6106 21.5182 32.6657 21.7335 32.7615 21.932C32.8573 22.1305 32.9919 22.3084 33.1576 22.4555C33.3233 22.6025 33.5168 22.7158 33.727 22.7888C33.9372 22.8619 34.16 22.8932 34.3825 22.8811C34.6049 22.8699 34.8229 22.8155 35.024 22.7211C35.2251 22.6266 35.4054 22.494 35.5544 22.3307C35.7035 22.1674 35.8184 21.9768 35.8926 21.7696C35.9668 21.5624 35.9989 21.3429 35.987 21.1234C35.9626 20.6801 35.761 20.2645 35.4264 19.9676C35.0917 19.6708 34.6514 19.517 34.202 19.5401ZM18.3591 32.5385C18.1659 32.5433 17.9823 32.6224 17.8474 32.7589C17.7125 32.8955 17.637 33.0786 17.637 33.2692C17.637 33.4599 17.7125 33.643 17.8474 33.7795C17.9823 33.916 18.1659 33.9952 18.3591 34C18.5556 34 18.744 33.923 18.8829 33.786C19.0218 33.6489 19.0998 33.463 19.0998 33.2692C19.0998 33.0754 19.0218 32.8896 18.8829 32.7525C18.744 32.6155 18.5556 32.5385 18.3591 32.5385ZM1.86809 18.8204C2.35736 18.8194 2.82624 18.6269 3.17176 18.2851C3.51728 17.9434 3.71121 17.4803 3.71095 16.9976C3.71133 16.7588 3.66393 16.5222 3.57145 16.3014C3.47898 16.0806 3.34326 15.88 3.17206 15.7111C3.00087 15.5421 2.79757 15.4082 2.57381 15.3169C2.35004 15.2256 2.11022 15.1788 1.86809 15.1791C1.62555 15.1788 1.38532 15.2257 1.16116 15.3171C0.937006 15.4084 0.733313 15.5425 0.561743 15.7117C0.390173 15.8808 0.254094 16.0816 0.161292 16.3027C0.0684893 16.5238 0.0207864 16.7607 0.0209124 17C0.0219257 17.4828 0.216924 17.9456 0.563172 18.2868C0.90942 18.628 1.37867 18.8199 1.86809 18.8204ZM10.3228 3.88875C10.5871 3.83333 10.8184 3.67657 10.9656 3.45296C11.1128 3.22935 11.164 2.9572 11.1078 2.69639C11.0801 2.5673 11.0269 2.44487 10.9511 2.33614C10.8753 2.2274 10.7785 2.1345 10.6663 2.06276C10.554 1.99102 10.4285 1.94186 10.297 1.9181C10.1654 1.89434 10.0304 1.89645 9.89964 1.92431C9.76889 1.95172 9.64489 2.00426 9.53473 2.07895C9.42457 2.15363 9.33039 2.24899 9.25759 2.35958C9.18478 2.47017 9.13477 2.59382 9.1104 2.72348C9.08604 2.85314 9.0878 2.98626 9.11558 3.11525C9.14336 3.24424 9.19663 3.36656 9.27233 3.47524C9.34803 3.58392 9.4447 3.67683 9.55679 3.74865C9.66889 3.82048 9.79423 3.86982 9.92566 3.89386C10.0571 3.9179 10.192 3.91616 10.3228 3.88875ZM6.89074 6.698C7.21429 6.64726 7.50421 6.4719 7.69681 6.21044C7.88941 5.94898 7.96895 5.6228 7.91795 5.30353C7.89262 5.14549 7.83594 4.99394 7.75114 4.85756C7.66635 4.72117 7.55512 4.60262 7.42382 4.50871C7.29252 4.41479 7.14373 4.34735 6.98597 4.31025C6.82821 4.27315 6.66458 4.26712 6.50445 4.2925C6.34446 4.31738 6.19101 4.37316 6.0529 4.45663C5.91478 4.5401 5.79472 4.64962 5.69957 4.77893C5.60442 4.90824 5.53606 5.0548 5.4984 5.21021C5.46074 5.36562 5.45452 5.52683 5.48011 5.68461C5.53097 6.00353 5.70816 6.28945 5.9727 6.47949C6.23724 6.66953 6.56746 6.74813 6.89074 6.698ZM4.23749 10.3738C4.63586 10.3229 4.99827 10.1203 5.24731 9.80941C5.49636 9.49848 5.6123 9.1038 5.57036 8.70968C5.52843 8.31555 5.33196 7.95323 5.0229 7.70008C4.71384 7.44694 4.3167 7.32304 3.9163 7.35486C3.7152 7.37535 3.52017 7.43484 3.34243 7.52989C3.16469 7.62495 3.00774 7.7537 2.88058 7.90877C2.75342 8.06383 2.65856 8.24215 2.60145 8.43348C2.54434 8.62481 2.52611 8.82539 2.54779 9.02369C2.56876 9.22184 2.62911 9.41397 2.7254 9.5891C2.82169 9.76422 2.95202 9.9189 3.10895 10.0443C3.26589 10.1697 3.44633 10.2633 3.63998 10.3199C3.83362 10.3764 4.03666 10.3947 4.23749 10.3738ZM2.51524 14.4585C2.96451 14.4349 3.38592 14.2364 3.68687 13.9065C3.98782 13.5765 4.14369 13.1422 4.12021 12.699C4.1089 12.4792 4.05366 12.2638 3.9577 12.0652C3.86173 11.8665 3.72692 11.6885 3.561 11.5414C3.39509 11.3943 3.20135 11.2811 2.99092 11.2081C2.78048 11.1351 2.5575 11.1038 2.33479 11.1161C2.11237 11.1275 1.89441 11.182 1.69336 11.2765C1.49232 11.371 1.31213 11.5037 1.16311 11.667C1.01409 11.8303 0.899166 12.021 0.824899 12.2281C0.750633 12.4352 0.718485 12.6548 0.730296 12.8742C0.754169 13.3177 0.955602 13.7338 1.29031 14.0309C1.62503 14.328 2.06562 14.4818 2.51524 14.4585ZM9.11558 30.8833C9.08776 31.0124 9.08599 31.1456 9.11036 31.2754C9.13474 31.4051 9.18478 31.5289 9.25763 31.6396C9.33048 31.7502 9.42471 31.8457 9.53495 31.9204C9.64519 31.9952 9.76927 32.0478 9.90011 32.0752C10.031 32.1027 10.166 32.1044 10.2975 32.0804C10.429 32.0563 10.5545 32.007 10.6667 31.9351C10.7789 31.8632 10.8756 31.7702 10.9514 31.6615C11.0271 31.5527 11.0805 31.4303 11.1083 31.3013C11.1642 31.0405 11.1129 30.7686 10.9657 30.5451C10.8185 30.3216 10.5875 30.1649 10.3233 30.1094C10.0591 30.0546 9.78376 30.1053 9.55743 30.2503C9.33109 30.3954 9.17222 30.623 9.11558 30.8833ZM5.48058 28.3135C5.45474 28.4713 5.46076 28.6327 5.49831 28.7882C5.53585 28.9437 5.60418 29.0904 5.69937 29.2198C5.79456 29.3492 5.91472 29.4588 6.05297 29.5423C6.19121 29.6257 6.34481 29.6814 6.50493 29.7061C6.74589 29.7439 6.99281 29.7104 7.21446 29.6098C7.43611 29.5092 7.62254 29.346 7.75017 29.1408C7.87779 28.9357 7.94088 28.6978 7.93145 28.4573C7.92203 28.2168 7.84051 27.9844 7.69721 27.7896C7.55391 27.5948 7.35526 27.4462 7.1264 27.3628C6.89753 27.2794 6.64873 27.2648 6.41145 27.3209C6.17417 27.377 5.95909 27.5012 5.79339 27.6779C5.6277 27.8546 5.51884 28.0758 5.48058 28.3135ZM2.54779 24.9763C2.52618 25.1745 2.54446 25.3749 2.60159 25.566C2.65872 25.7572 2.75356 25.9353 2.88068 26.0902C3.0078 26.2451 3.16469 26.3737 3.34233 26.4686C3.51997 26.5635 3.71487 26.6229 3.91582 26.6432C4.11671 26.6644 4.31986 26.6463 4.51364 26.5899C4.70742 26.5335 4.88801 26.44 5.04507 26.3146C5.20212 26.1892 5.33256 26.0345 5.42889 25.8593C5.52523 25.6841 5.58558 25.4919 5.60647 25.2936C5.62757 25.0954 5.60888 24.895 5.55147 24.7039C5.49406 24.5128 5.39906 24.3348 5.2719 24.1799C5.14473 24.025 4.98788 23.8963 4.81032 23.8013C4.63275 23.7062 4.43794 23.6466 4.23701 23.6257C4.03616 23.6048 3.83309 23.6231 3.63942 23.6796C3.44575 23.7361 3.26529 23.8298 3.10838 23.9553C2.95147 24.0807 2.82118 24.2355 2.72499 24.4107C2.62879 24.5859 2.56858 24.7781 2.54779 24.9763ZM0.730296 21.123C0.718359 21.3424 0.750421 21.562 0.824645 21.7691C0.89887 21.9763 1.0138 22.167 1.16285 22.3302C1.3119 22.4935 1.49213 22.6262 1.69324 22.7206C1.89434 22.815 2.11235 22.8694 2.33479 22.8806C2.55751 22.8931 2.78053 22.862 2.99102 22.7891C3.2015 22.7162 3.3953 22.6029 3.56124 22.4559C3.72719 22.3088 3.86201 22.1308 3.95794 21.9321C4.05387 21.7334 4.10902 21.518 4.12021 21.2982C4.1433 20.8551 3.98727 20.4211 3.68637 20.0914C3.38548 19.7617 2.96429 19.5633 2.51524 19.5396C2.06594 19.517 1.62584 19.6709 1.2913 19.9676C0.956756 20.2644 0.755034 20.6798 0.730296 21.123ZM22.4211 31.9567C22.2172 32.0108 22.0435 32.1425 21.9379 32.3228C21.8323 32.5031 21.8034 32.7174 21.8577 32.9186C21.9126 33.1196 22.0462 33.2908 22.229 33.3946C22.4118 33.4985 22.629 33.5265 22.8327 33.4725C22.9339 33.4462 23.0288 33.4004 23.112 33.3378C23.1952 33.2752 23.265 33.1971 23.3175 33.1078C23.3699 33.0185 23.404 32.9199 23.4178 32.8175C23.4315 32.7152 23.4247 32.6112 23.3976 32.5116C23.3426 32.3103 23.2089 32.1387 23.0258 32.0347C22.8427 31.9306 22.6251 31.9026 22.4211 31.9567ZM14.2962 31.9567C14.0942 31.9079 13.8808 31.9392 13.7019 32.0437C13.5229 32.1482 13.3925 32.3178 13.3387 32.5159C13.2849 32.7141 13.3119 32.9252 13.4139 33.104C13.5159 33.2828 13.6849 33.4151 13.8845 33.4725C13.9862 33.5018 14.0928 33.5107 14.1981 33.4987C14.3033 33.4868 14.4051 33.4542 14.4974 33.403C14.5897 33.3517 14.6707 33.2828 14.7357 33.2002C14.8006 33.1176 14.8482 33.0231 14.8756 32.9221C14.903 32.8212 14.9097 32.7159 14.8953 32.6123C14.8809 32.5088 14.8457 32.4091 14.7917 32.3192C14.7377 32.2293 14.6661 32.1509 14.581 32.0886C14.4959 32.0264 14.3991 31.9815 14.2962 31.9567ZM23.398 1.48797C23.425 1.38825 23.4317 1.28427 23.4179 1.18197C23.4041 1.07968 23.3699 0.981074 23.3174 0.891814C23.2649 0.802553 23.1951 0.724386 23.1119 0.661786C23.0287 0.599186 22.9339 0.553384 22.8327 0.527C22.6324 0.48309 22.4226 0.517202 22.2472 0.622217C22.0717 0.727232 21.9442 0.895035 21.8911 1.09061C21.8381 1.28618 21.8636 1.4944 21.9625 1.67183C22.0613 1.84926 22.2258 1.98217 22.4216 2.04283C22.5226 2.06976 22.628 2.07677 22.7318 2.06344C22.8356 2.05012 22.9357 2.01674 23.0264 1.9652C23.1171 1.91366 23.1967 1.84498 23.2604 1.76309C23.3242 1.6812 23.3709 1.58771 23.398 1.48797ZM14.861 1.08044C14.8339 0.980765 14.7871 0.887349 14.7233 0.805551C14.6595 0.723752 14.5799 0.655181 14.4892 0.603766C14.3985 0.552351 14.2984 0.519104 14.1946 0.505931C14.0909 0.492758 13.9855 0.499918 13.8845 0.527C13.7836 0.553429 13.689 0.599228 13.606 0.661777C13.5231 0.724326 13.4535 0.802397 13.4011 0.891522C13.3488 0.980647 13.3148 1.07908 13.3011 1.18118C13.2874 1.28328 13.2942 1.38705 13.3211 1.48656C13.3482 1.5863 13.3949 1.67982 13.4585 1.76177C13.5222 1.84372 13.6016 1.9125 13.6922 1.96418C13.7828 2.01586 13.8828 2.04942 13.9866 2.06296C14.0904 2.07649 14.1958 2.06974 14.2969 2.04307C14.398 2.0164 14.4928 1.97035 14.5759 1.90754C14.6589 1.84474 14.7287 1.7664 14.781 1.67701C14.8334 1.58763 14.8675 1.48894 14.8812 1.38658C14.8949 1.28422 14.888 1.18019 14.861 1.08044Z" fill="white"/>
</g>
<g id="Group_4">
<path id="Vector_5" d="M30.7532 13.2758C30.402 13.4247 30.0052 13.43 29.65 13.2905C29.2949 13.1509 29.0104 12.878 28.8591 12.5316C28.7841 12.3601 28.744 12.1757 28.7413 11.9889C28.7386 11.8021 28.7733 11.6166 28.8434 11.4431C28.9135 11.2696 29.0176 11.1114 29.1497 10.9776C29.2819 10.8438 29.4395 10.7371 29.6135 10.6635C29.963 10.5237 30.354 10.5245 30.7028 10.6658C31.0516 10.8071 31.3305 11.0776 31.4795 11.4193C31.6286 11.761 31.636 12.1467 31.5003 12.4937C31.3645 12.8408 31.0963 13.1215 30.7532 13.2758ZM20.6347 4.22755C20.6146 4.1264 20.5745 4.03017 20.5165 3.94439C20.4586 3.85861 20.3841 3.78499 20.2972 3.72776C20.2103 3.67052 20.1128 3.63081 20.0103 3.6109C19.9077 3.591 19.8023 3.59129 19.6999 3.61177C19.5973 3.63147 19.4996 3.67101 19.4126 3.72812C19.3256 3.78523 19.2508 3.85877 19.1928 3.94451C19.1347 4.03025 19.0944 4.12649 19.0742 4.22767C19.0541 4.32885 19.0544 4.43297 19.0752 4.53402C19.1225 4.73206 19.2458 4.90426 19.4193 5.0143C19.5927 5.12434 19.8027 5.16363 20.005 5.12388C20.2072 5.08414 20.386 4.96846 20.5034 4.80124C20.6209 4.63403 20.668 4.42834 20.6347 4.22755ZM24.0481 4.95997C24.017 4.83896 23.9621 4.72518 23.8863 4.62519C23.8106 4.52519 23.7156 4.44094 23.6067 4.37727C23.4979 4.31361 23.3774 4.27178 23.2521 4.25419C23.1268 4.2366 22.9993 4.24359 22.8768 4.27477C22.754 4.30524 22.6385 4.35936 22.537 4.43402C22.4355 4.50868 22.35 4.6024 22.2853 4.7098C22.2207 4.81719 22.1782 4.93614 22.1604 5.05979C22.1425 5.18345 22.1496 5.30937 22.1813 5.4303C22.2126 5.55123 22.2677 5.66489 22.3435 5.76479C22.4194 5.86469 22.5144 5.94888 22.6232 6.01255C22.732 6.07622 22.8525 6.11812 22.9777 6.13587C23.1029 6.15361 23.2305 6.14685 23.353 6.11597C23.4756 6.08509 23.5908 6.03069 23.6921 5.95588C23.7934 5.88107 23.8787 5.78732 23.9432 5.67997C24.0078 5.57263 24.0503 5.4538 24.0682 5.33026C24.0862 5.20672 24.0794 5.08089 24.0481 4.95997ZM27.1953 6.45833C27.1487 6.30967 27.0727 6.17157 26.9718 6.05196C26.8709 5.93235 26.747 5.8336 26.6073 5.76137C26.4676 5.68914 26.3148 5.64486 26.1577 5.63107C26.0006 5.61729 25.8423 5.63428 25.6918 5.68105C25.5411 5.72712 25.4011 5.80209 25.2798 5.90165C25.1585 6.00122 25.0583 6.12342 24.9849 6.26126C24.9116 6.3991 24.8666 6.54987 24.8524 6.70491C24.8383 6.85996 24.8553 7.01623 24.9025 7.16477C25.0038 7.45697 25.2168 7.69861 25.496 7.83826C25.7752 7.9779 26.0986 8.00453 26.3974 7.91246C26.6962 7.82039 26.9468 7.61691 27.0958 7.34532C27.2449 7.07373 27.2805 6.75549 27.1953 6.45833ZM29.7054 8.6655C29.6452 8.50453 29.5535 8.35685 29.4353 8.23094C29.3172 8.10502 29.1751 8.00333 29.017 7.93169C28.859 7.86006 28.6882 7.81989 28.5144 7.81348C28.3406 7.80708 28.1673 7.83456 28.0042 7.89436C27.8408 7.95343 27.6909 8.04379 27.563 8.16023C27.4351 8.27668 27.3318 8.41691 27.259 8.57288C27.1862 8.72884 27.1454 8.89745 27.1389 9.06903C27.1324 9.2406 27.1604 9.41175 27.2211 9.57264C27.3431 9.89764 27.5909 10.1615 27.9101 10.3063C28.2292 10.451 28.5936 10.4648 28.923 10.3445C29.2525 10.2242 29.52 9.97972 29.6667 9.66484C29.8134 9.34997 29.8274 8.9905 29.7054 8.6655ZM13.7926 5.11014C13.7625 5.04119 13.7189 4.97878 13.6643 4.92649C13.6097 4.8742 13.5452 4.83306 13.4745 4.80542C13.4037 4.77778 13.3281 4.76419 13.252 4.76543C13.176 4.76667 13.1009 4.78271 13.0311 4.81263C12.8903 4.87256 12.7794 4.98521 12.7228 5.1258C12.6662 5.26639 12.6685 5.4234 12.7293 5.56229C12.79 5.70118 12.9042 5.81058 13.0467 5.86641C13.1892 5.92225 13.3484 5.91995 13.4892 5.86002C13.7826 5.73536 13.9195 5.39913 13.7926 5.11014ZM28.2302 23.9485C28.0632 24.071 27.9516 24.253 27.919 24.4557C27.8864 24.6584 27.9356 24.8657 28.056 25.033C28.1763 25.2004 28.3583 25.3147 28.563 25.3513C28.7677 25.388 28.9788 25.3441 29.1511 25.2292C29.2364 25.1695 29.3089 25.0938 29.3644 25.0065C29.42 24.9192 29.4576 24.8219 29.4749 24.7202C29.4923 24.6185 29.4892 24.5144 29.4658 24.4139C29.4423 24.3134 29.399 24.2185 29.3383 24.1346C29.2779 24.0505 29.2014 23.9791 29.113 23.9242C29.0247 23.8694 28.9262 23.8323 28.8233 23.815C28.7204 23.7977 28.6151 23.8006 28.5133 23.8235C28.4115 23.8464 28.3153 23.8889 28.2302 23.9485ZM29.8117 20.8876C29.7022 20.953 29.6069 21.0393 29.5316 21.1415C29.4563 21.2437 29.4024 21.3597 29.373 21.4826C29.3436 21.6056 29.3394 21.7331 29.3606 21.8577C29.3818 21.9823 29.4279 22.1015 29.4963 22.2083C29.5647 22.3152 29.654 22.4074 29.759 22.4798C29.8639 22.5522 29.9825 22.6032 30.1077 22.6298C30.2329 22.6565 30.3622 22.6582 30.4881 22.635C30.6139 22.6118 30.7339 22.564 30.8408 22.4945C31.0516 22.3576 31.1995 22.1445 31.2528 21.9011C31.306 21.6577 31.2603 21.4034 31.1255 21.1929C30.9907 20.9824 30.7775 20.8325 30.5318 20.7754C30.2862 20.7183 30.0276 20.7585 29.8117 20.8876ZM30.5598 17.4432C30.2822 17.5974 30.0779 17.854 29.9918 18.1567C29.9057 18.4595 29.9449 18.7835 30.1008 19.0577C30.178 19.1933 30.2816 19.3125 30.4056 19.4085C30.5297 19.5045 30.6717 19.5755 30.8235 19.6173C30.9753 19.6591 31.134 19.6709 31.2905 19.6521C31.447 19.6333 31.5982 19.5842 31.7355 19.5077C31.8732 19.432 31.9945 19.3301 32.0922 19.208C32.1899 19.0859 32.2622 18.9459 32.3049 18.7961C32.3476 18.6464 32.3599 18.4897 32.341 18.3353C32.3221 18.1808 32.2725 18.0315 32.195 17.896C32.1179 17.7602 32.0144 17.6408 31.8905 17.5445C31.7665 17.4482 31.6245 17.377 31.4726 17.335C31.3208 17.2929 31.1619 17.2808 31.0053 17.2994C30.8487 17.3179 30.6973 17.3668 30.5598 17.4432ZM30.5144 13.9893C30.2003 14.1433 29.9609 14.4138 29.8488 14.7416C29.7366 15.0694 29.7608 15.4277 29.916 15.738C29.9929 15.8921 30.0999 16.0297 30.2309 16.1429C30.3619 16.2561 30.5142 16.3426 30.6792 16.3975C30.8442 16.4524 31.0186 16.4746 31.1923 16.4628C31.366 16.451 31.5356 16.4054 31.6914 16.3287C31.8474 16.253 31.9867 16.1476 32.1013 16.0185C32.2159 15.8895 32.3035 15.7394 32.3591 15.5769C32.4147 15.4143 32.4372 15.2425 32.4253 15.0714C32.4134 14.9003 32.3673 14.7331 32.2897 14.5796C32.1334 14.2693 31.8587 14.0328 31.5258 13.9222C31.193 13.8115 30.8292 13.8357 30.5144 13.9893ZM23.2295 28.1414C23.1598 28.171 23.0967 28.214 23.0437 28.2677C22.9908 28.3215 22.9491 28.385 22.9211 28.4546C22.8931 28.5242 22.8792 28.5986 22.8803 28.6735C22.8814 28.7485 22.8974 28.8224 22.9275 28.8912C22.9883 29.0302 23.1025 29.1397 23.245 29.1955C23.3156 29.2232 23.391 29.2369 23.467 29.2358C23.5429 29.2347 23.6179 29.2189 23.6876 29.1892C23.9811 29.0646 24.118 28.7288 23.9916 28.4384C23.9304 28.2994 23.8158 28.19 23.6729 28.1343C23.53 28.0786 23.3705 28.0811 23.2295 28.1414ZM7.10662 23.3365C7.45727 23.1866 7.73325 22.9055 7.8739 22.5549C8.01455 22.2043 8.00836 21.813 7.85669 21.467C7.78207 21.2957 7.67393 21.1406 7.53846 21.0106C7.40299 20.8805 7.24286 20.7782 7.06723 20.7093C6.8916 20.6404 6.70392 20.6064 6.51495 20.6092C6.32598 20.612 6.13942 20.6516 5.96596 20.7256C5.79192 20.7992 5.63431 20.9059 5.50218 21.0397C5.37004 21.1735 5.26597 21.3317 5.19593 21.5052C5.12589 21.6788 5.09126 21.8643 5.09403 22.0511C5.0968 22.2378 5.13691 22.4222 5.21206 22.5937C5.36368 22.9398 5.64835 23.2125 6.00357 23.3518C6.35878 23.491 6.7555 23.4855 7.10662 23.3365ZM8.48805 10.0519C8.57321 9.99251 8.64567 9.91712 8.70129 9.83006C8.7569 9.743 8.79459 9.64599 8.81219 9.54456C8.82979 9.44313 8.82697 9.33927 8.80387 9.23891C8.78078 9.13856 8.73787 9.04368 8.6776 8.95969C8.61765 8.87527 8.54134 8.8034 8.45308 8.74823C8.36482 8.69306 8.26636 8.65569 8.16338 8.63826C8.0604 8.62083 7.95495 8.62369 7.85309 8.64668C7.75124 8.66968 7.65502 8.71234 7.56997 8.77222C7.48432 8.83153 7.41142 8.90699 7.35549 8.99424C7.29955 9.08149 7.26168 9.17881 7.24405 9.28057C7.22643 9.38233 7.22941 9.48653 7.25281 9.58715C7.27622 9.68777 7.31959 9.78283 7.38042 9.86683C7.50261 10.036 7.68782 10.1505 7.89545 10.1852C8.10308 10.2199 8.31618 10.172 8.48805 10.0519ZM6.90797 13.1124C7.01511 13.0456 7.10785 12.9586 7.18088 12.8564C7.25391 12.7542 7.3058 12.6387 7.33358 12.5167C7.36137 12.3947 7.3645 12.2685 7.3428 12.1453C7.32111 12.0221 7.27501 11.9043 7.20714 11.7987C7.07035 11.5858 6.85346 11.4353 6.60417 11.3802C6.35489 11.3252 6.09363 11.37 5.87788 11.505C5.66213 11.6399 5.50955 11.8539 5.45372 12.0998C5.39788 12.3457 5.44336 12.6035 5.58015 12.8163C5.71643 13.0293 5.93289 13.1801 6.1819 13.2357C6.43092 13.2912 6.69209 13.2469 6.90797 13.1124ZM6.15742 16.5573C6.2996 16.4836 6.42537 16.3826 6.52728 16.2602C6.6292 16.1377 6.70518 15.9964 6.75075 15.8445C6.79632 15.6925 6.81054 15.5332 6.79258 15.3757C6.77462 15.2183 6.72483 15.066 6.64617 14.9279C6.56751 14.7898 6.46157 14.6686 6.33462 14.5716C6.20766 14.4746 6.06228 14.4037 5.90706 14.3631C5.75184 14.3224 5.58994 14.3129 5.43093 14.3351C5.27193 14.3573 5.11905 14.4107 4.98134 14.4922C4.70488 14.6467 4.50175 14.9029 4.41645 15.2048C4.33114 15.5068 4.37063 15.8297 4.52625 16.103C4.68187 16.3762 4.94094 16.5775 5.24668 16.6626C5.55243 16.7478 5.87993 16.7099 6.15742 16.5573ZM6.20385 20.0121C6.51856 19.8581 6.75839 19.5872 6.8706 19.2588C6.98281 18.9304 6.9582 18.5715 6.80219 18.2611C6.72537 18.1068 6.61837 17.9691 6.48736 17.8558C6.35635 17.7426 6.20391 17.656 6.03883 17.6012C5.87376 17.5463 5.6993 17.5242 5.52553 17.5361C5.35176 17.5481 5.1821 17.5938 5.02633 17.6708C4.87048 17.7468 4.73133 17.8523 4.61685 17.9814C4.50236 18.1105 4.41479 18.2605 4.35913 18.423C4.30348 18.5855 4.28083 18.7572 4.29248 18.9284C4.30413 19.0995 4.34986 19.2667 4.42704 19.4204C4.58329 19.7311 4.85819 19.968 5.19134 20.0789C5.52449 20.1899 5.88866 20.1658 6.20385 20.0121ZM16.0835 29.7748C16.104 29.876 16.1444 29.9722 16.2025 30.058C16.2607 30.1438 16.3353 30.2175 16.4223 30.2748C16.5093 30.3321 16.6069 30.3719 16.7095 30.392C16.8121 30.4121 16.9177 30.4121 17.0203 30.392C17.2272 30.3504 17.4091 30.2296 17.5259 30.056C17.6427 29.8824 17.685 29.6702 17.6435 29.4659C17.6015 29.2622 17.4794 29.0832 17.304 28.968C17.1285 28.8527 16.914 28.8107 16.7072 28.8511C16.5005 28.8922 16.3187 29.0126 16.2018 29.1857C16.0849 29.3589 16.0424 29.5707 16.0835 29.7748ZM12.6721 29.0405C12.703 29.1615 12.7579 29.2753 12.8336 29.3754C12.9092 29.4755 13.0042 29.5598 13.113 29.6236C13.2218 29.6873 13.3422 29.7292 13.4675 29.7469C13.5928 29.7646 13.7203 29.7577 13.8429 29.7266C14.0903 29.6642 14.3025 29.5075 14.4328 29.2908C14.563 29.074 14.6007 28.8152 14.5374 28.5711C14.4742 28.327 14.3153 28.1177 14.0956 27.9892C13.876 27.8607 13.6136 27.8235 13.3661 27.8859C13.2437 27.9167 13.1287 27.9711 13.0275 28.0458C12.9264 28.1205 12.8412 28.2141 12.7767 28.3214C12.7123 28.4286 12.6699 28.5473 12.6519 28.6706C12.6339 28.794 12.6408 28.9197 12.6721 29.0405ZM9.52389 27.5416C9.57019 27.6904 9.64591 27.8286 9.74667 27.9484C9.84742 28.0681 9.97123 28.167 10.1109 28.2392C10.2506 28.3115 10.4035 28.3558 10.5606 28.3694C10.7177 28.3831 10.8761 28.3659 11.0264 28.3189C11.1772 28.2731 11.3173 28.1983 11.4387 28.099C11.5601 27.9996 11.6604 27.8775 11.7338 27.7398C11.8072 27.602 11.8523 27.4513 11.8666 27.2963C11.8808 27.1414 11.8639 26.9851 11.8167 26.8366C11.7213 26.5366 11.5092 26.2862 11.2268 26.1404C10.9445 25.9946 10.6151 25.9653 10.3108 26.0589C10.1603 26.105 10.0204 26.1799 9.89933 26.2795C9.77824 26.379 9.67826 26.5012 9.60514 26.639C9.53203 26.7768 9.48721 26.9274 9.47327 27.0823C9.45932 27.2372 9.47652 27.3933 9.52389 27.5416ZM7.0128 25.3331C7.07267 25.4943 7.16427 25.6422 7.28232 25.7683C7.40037 25.8945 7.54254 25.9963 7.70066 26.068C7.85877 26.1398 8.0297 26.1799 8.20361 26.1862C8.37752 26.1925 8.55097 26.1648 8.71398 26.1047C9.03644 25.9797 9.29639 25.735 9.43805 25.423C9.57971 25.1111 9.59179 24.7569 9.47171 24.4363C9.35163 24.1156 9.10895 23.8543 8.79574 23.7082C8.48253 23.562 8.12374 23.5429 7.79638 23.6548C7.46713 23.7751 7.19973 24.0194 7.05283 24.3341C6.90593 24.6487 6.89154 25.008 7.0128 25.3331ZM25.9589 26.4848C25.8356 26.5875 25.7577 26.7336 25.7416 26.892C25.7256 27.0504 25.7726 27.2088 25.8728 27.3336C25.973 27.4584 26.1185 27.5398 26.2785 27.5607C26.4385 27.5815 26.6004 27.5402 26.73 27.4453C26.7969 27.3964 26.8531 27.3347 26.8953 27.2639C26.9376 27.1931 26.9649 27.1147 26.9758 27.0333C26.9867 26.9519 26.9809 26.8691 26.9588 26.79C26.9366 26.7108 26.8986 26.6368 26.8469 26.5725C26.7952 26.5081 26.731 26.4546 26.6579 26.4152C26.5849 26.3758 26.5046 26.3513 26.4217 26.3431C26.3389 26.3349 26.2552 26.3433 26.1757 26.3676C26.0962 26.392 26.0225 26.4318 25.9589 26.4848ZM20.134 28.9621C19.9711 28.9863 19.8246 29.0732 19.7265 29.2038C19.6284 29.3343 19.5866 29.4978 19.6103 29.6586C19.6221 29.7382 19.6497 29.8148 19.6915 29.8839C19.7333 29.953 19.7885 30.0133 19.8539 30.0613C19.9194 30.1093 19.9938 30.1442 20.0729 30.1638C20.152 30.1834 20.2343 30.1875 20.3149 30.1757C20.3958 30.1642 20.4736 30.1372 20.5438 30.096C20.614 30.0548 20.6753 30.0004 20.7242 29.9358C20.7731 29.8713 20.8086 29.7978 20.8286 29.7197C20.8486 29.6416 20.8528 29.5603 20.841 29.4806C20.8292 29.4007 20.8015 29.3239 20.7595 29.2546C20.7176 29.1853 20.6622 29.1248 20.5965 29.0767C20.5308 29.0285 20.4562 28.9936 20.3768 28.9739C20.2975 28.9543 20.215 28.9502 20.134 28.9621ZM17.1103 4.3423C17.0984 4.26251 17.0707 4.18582 17.0287 4.11663C16.9867 4.04745 16.9312 3.98712 16.8655 3.93912C16.7999 3.89112 16.7252 3.85639 16.6459 3.83693C16.5666 3.81746 16.4841 3.81364 16.4033 3.82569C16.2403 3.84936 16.0936 3.93592 15.9954 4.06632C15.8971 4.19672 15.8554 4.36029 15.8794 4.52104C15.9034 4.68178 15.9911 4.82654 16.1233 4.92347C16.2555 5.0204 16.4213 5.06156 16.5842 5.03789C16.7474 5.01441 16.8946 4.92795 16.9932 4.79752C17.0918 4.66709 17.134 4.50335 17.1103 4.3423ZM10.8618 6.65477C10.7591 6.52742 10.6096 6.44534 10.4458 6.42649C10.282 6.40764 10.1173 6.45356 9.98771 6.55419C9.89118 6.62952 9.81947 6.73139 9.78163 6.84693C9.74379 6.96246 9.74153 7.08648 9.77513 7.20328C9.80873 7.32009 9.87669 7.42444 9.97042 7.50314C10.0641 7.58184 10.1794 7.63135 10.3017 7.64542C10.4239 7.65949 10.5476 7.63748 10.6572 7.58217C10.7668 7.52687 10.8572 7.44075 10.9172 7.33471C10.9772 7.22867 11.0039 7.10747 10.994 6.98645C10.9841 6.86542 10.9381 6.75 10.8618 6.65477Z" fill="white"/>
</g>
</g>
<defs>
<clipPath id="clip0_2_567">
<rect width="120" height="34" fill="white"/>
</clipPath>
</defs>
</svg>
